<?xml version="1.0" encoding="UTF-8" standalone="no"?>
<!-- Created with Inkscape (http://www.inkscape.org/) -->

<svg
   version="1.1"
   id="svg2"
   width="1054.6667"
   height="744"
   viewBox="0 0 1054.6667 744"
   sodipodi:docname="girls_hc_temp.pdf"
   xmlns:inkscape="http://www.inkscape.org/namespaces/inkscape"
   xmlns:sodipodi="http://sodipodi.sourceforge.net/DTD/sodipodi-0.dtd"
   xmlns="http://www.w3.org/2000/svg"
   xmlns:svg="http://www.w3.org/2000/svg">
  <defs
     id="defs6">
    <clipPath
       clipPathUnits="userSpaceOnUse"
       id="clipPath16">
      <path
         d="M 25.98,792 H 586.02 V 0.03 H 25.98 Z"
         id="path14" />
    </clipPath>
  </defs>
  <sodipodi:namedview
     id="namedview4"
     pagecolor="#ffffff"
     bordercolor="#000000"
     borderopacity="0.25"
     inkscape:showpageshadow="2"
     inkscape:pageopacity="0.0"
     inkscape:pagecheckerboard="0"
     inkscape:deskcolor="#d1d1d1" />
  <g
     id="g8"
     inkscape:groupmode="layer"
     inkscape:label="girls_hc_temp"
     transform="matrix(0,1.3333333,1.3333333,0,-1.3333333,-36)">
    <g
       id="g10">
      <g
         id="g12"
         clip-path="url(#clipPath16)">
        <path
           d="M 25.98,0.029999 H 586.02 V 792 H 25.98 Z"
           style="fill:#ffffff;fill-opacity:1;fill-rule:nonzero;stroke:none"
           id="path18" />
      </g>
    </g>
    <path
       d="M 113.46,49.38 H 546 V 742.62 H 113.46 Z"
       style="fill:#e45bbf;fill-opacity:1;fill-rule:nonzero;stroke:none"
       id="path20" />
    <path
       d="M 113.46,49.38 H 546 V 742.62 H 113.46 Z"
       style="fill:none;stroke:#ffffff;stroke-width:0.705;stroke-linecap:round;stroke-linejoin:miter;stroke-miterlimit:8;stroke-dasharray:none;stroke-opacity:1"
       id="path22" />
    <path
       d="M 132.72,108.06 H 503.34 V 694.62 H 132.72 Z"
       style="fill:#ffffff;fill-opacity:1;fill-rule:nonzero;stroke:none"
       id="path24" />
    <path
       d="M 132.72,108.06 H 503.34 V 694.62 H 132.72 Z"
       style="fill:none;stroke:#ffffff;stroke-width:0.705;stroke-linecap:round;stroke-linejoin:miter;stroke-miterlimit:8;stroke-dasharray:none;stroke-opacity:1"
       id="path26" />
    <text
       xml:space="preserve"
       transform="matrix(0,1,1,0,559.7999,606.06)"
       style="font-variant:normal;font-weight:normal;font-stretch:normal;font-size:10.32px;font-family:Arial;-inkscape-font-specification:ArialMT;writing-mode:lr-tb;fill:#000000;fill-opacity:1;fill-rule:nonzero;stroke:none"
       id="text30"><tspan
         x="0 9.7534323 17.215824 25.256136 28.13748 35.599873 41.418289 43.72068 46.023071 51.772343 54.653687 62.694 66.141914 71.891182 79.353577 82.233887 87.983162 90.864502 97.704597 100.58595 106.33521 112.08449 117.83376 123.58303 127.03094 132.78021"
         y="0"
         sodipodi:role="line"
         id="tspan28">WHO Child Growth Standards</tspan></text>
    <text
       xml:space="preserve"
       transform="matrix(0,1,1,0,85.68,106.56)"
       style="font-variant:normal;font-weight:normal;font-stretch:normal;font-size:23.52px;font-family:'Arial Black';-inkscape-font-specification:Arial-Black;writing-mode:lr-tb;fill:#e45bbf;fill-opacity:1;fill-rule:nonzero;stroke:none"
       id="text34"><tspan
         x="0 19.582752 35.261185 50.939617 66.61805 74.466675 90.145103 97.967857 108.40133 124.07976 139.75819 163.26878 172.40866 188.08708 198.52055 214.19899 229.87743 245.55586 261.23428 269.05704 278.1969 293.87534 304.30881 312.13156 327.81 343.48843 359.16687 374.86411 394.44687 403.58673 421.87589 437.55432"
         y="0"
         sodipodi:role="line"
         id="tspan32">Head circumference-for-age GIRLS</tspan></text>
    <text
       xml:space="preserve"
       transform="matrix(0,1,1,0,105.36,106.56)"
       style="font-variant:normal;font-weight:normal;font-stretch:normal;font-size:12.24px;font-family:Arial;-inkscape-font-specification:ArialMT;writing-mode:lr-tb;fill:#000000;fill-opacity:1;fill-rule:nonzero;stroke:none"
       id="text38"><tspan
         x="0 8.1555119 10.864224 14.931576 18.325727 25.122601 28.544905 31.939056 38.735928 42.158234 48.955105 52.377407 58.557384 65.335899 72.132767 76.200119 82.311554 85.733856 89.873421 96.711914 103.50878 107.57613 113.75611 120.55299 127.34985 130.744 133.45271 136.21039 143.00726 149.18724"
         y="0"
         sodipodi:role="line"
         id="tspan36">Birth to 2 years (percentiles)</tspan></text>
    <path
       d="m 94.32,10.2 -2.4,536.16"
       style="fill:none;stroke:#e45bbf;stroke-width:1.411;stroke-linecap:butt;stroke-linejoin:round;stroke-miterlimit:10;stroke-dasharray:none;stroke-opacity:1"
       id="path40" />
    <g
       id="g42"
       transform="matrix(0,1.041796,-0.959881,0,0,0)">
      <path
         d="M 667.905,-137.017 H 103.264 V -524.19 h 564.641 z"
         style="fill:none;stroke:#000000;stroke-width:0.689;stroke-linecap:round;stroke-linejoin:round;stroke-miterlimit:10;stroke-dasharray:none;stroke-opacity:1"
         id="path44" />
    </g>
    <text
       xml:space="preserve"
       transform="matrix(-1,0,0,1,385.08,81.3)"
       style="font-variant:normal;font-weight:normal;font-stretch:normal;font-size:12.0481px;font-family:Arial;-inkscape-font-specification:ArialMT;writing-mode:lr-tb;fill:#ffffff;fill-opacity:1;fill-rule:nonzero;stroke:none"
       id="text48"><tspan
         x="0 8.7035475 15.40711 22.110674 28.814236 32.175655 38.204525 40.884022 44.90086 50.929729 57.633289 67.674179 71.028366 77.731934 81.748772 88.452332 95.155891 101.18476 107.88833 111.24975 115.26658 121.29545 131.33633"
         y="0"
         sodipodi:role="line"
         id="tspan46">Head circumference (cm)</tspan></text>
    <text
       xml:space="preserve"
       transform="matrix(0,1,1,0,535.3199,299.88)"
       style="font-variant:normal;font-weight:normal;font-stretch:normal;font-size:12.0481px;font-family:Arial;-inkscape-font-specification:ArialMT;writing-mode:lr-tb;fill:#ffffff;fill-opacity:1;fill-rule:nonzero;stroke:none"
       id="text52"><tspan
         x="0 8.0541544 14.77097 21.487787 24.849207 28.879295 34.921417 41.638233 51.692371 58.409187 61.10194 67.818756 71.186195 77.903015 84.619827 87.981247 98.035393 104.7522 111.46902 114.83646 121.55328 127.59541 130.95682 137.67365 144.39046 151.10727 154.46869 160.51082 167.22763 173.94444 177.97453 184.01666"
         y="0"
         sodipodi:role="line"
         id="tspan50">Age (completed months and years)</tspan></text>
    <g
       id="g54"
       transform="matrix(0,1.041796,-0.959881,0,0,0)">
      <path
         d="M 103.552,-523.065 H 643.658"
         style="fill:none;stroke:#6e6e64;stroke-width:0.138;stroke-linecap:round;stroke-linejoin:round;stroke-miterlimit:10;stroke-dasharray:none;stroke-opacity:1"
         id="path56" />
    </g>
    <path
       d="m 502.08,670.56 h 0.06 v 0.0601 h -0.06 z"
       style="fill:#6e6e64;fill-opacity:1;fill-rule:nonzero;stroke:none"
       id="path58" />
    <g
       id="g60"
       transform="matrix(0,1.041796,-0.959881,0,0,0)">
      <path
         d="M 103.552,-513.689 H 643.658"
         style="fill:none;stroke:#6e6e64;stroke-width:0.138;stroke-linecap:round;stroke-linejoin:round;stroke-miterlimit:10;stroke-dasharray:none;stroke-opacity:1"
         id="path62" />
    </g>
    <path
       d="m 493.08,670.56 h 0.06 v 0.0601 h -0.06 z"
       style="fill:#6e6e64;fill-opacity:1;fill-rule:nonzero;stroke:none"
       id="path64" />
    <g
       id="g66"
       transform="matrix(0,1.041796,-0.959881,0,0,0)">
      <path
         d="M 103.552,-504.312 H 643.658"
         style="fill:none;stroke:#6e6e64;stroke-width:0.138;stroke-linecap:round;stroke-linejoin:round;stroke-miterlimit:10;stroke-dasharray:none;stroke-opacity:1"
         id="path68" />
    </g>
    <path
       d="m 484.08,670.56 h 0.06 v 0.0601 h -0.06 z"
       style="fill:#6e6e64;fill-opacity:1;fill-rule:nonzero;stroke:none"
       id="path70" />
    <g
       id="g72"
       transform="matrix(0,1.041796,-0.959881,0,0,0)">
      <path
         d="M 103.552,-494.811 H 643.658"
         style="fill:none;stroke:#6e6e64;stroke-width:0.138;stroke-linecap:round;stroke-linejoin:round;stroke-miterlimit:10;stroke-dasharray:none;stroke-opacity:1"
         id="path74" />
    </g>
    <path
       d="m 474.96,670.56 h 0.06 v 0.0601 h -0.06 z"
       style="fill:#6e6e64;fill-opacity:1;fill-rule:nonzero;stroke:none"
       id="path76" />
    <g
       id="g78"
       transform="matrix(0,1.041796,-0.959881,0,0,0)">
      <path
         d="M 103.552,-485.435 H 643.658"
         style="fill:none;stroke:#6e6e64;stroke-width:0.138;stroke-linecap:round;stroke-linejoin:round;stroke-miterlimit:10;stroke-dasharray:none;stroke-opacity:1"
         id="path80" />
    </g>
    <path
       d="m 465.96,670.56 h 0.06 v 0.0601 h -0.06 z"
       style="fill:#6e6e64;fill-opacity:1;fill-rule:nonzero;stroke:none"
       id="path82" />
    <g
       id="g84"
       transform="matrix(0,1.041796,-0.959881,0,0,0)">
      <path
         d="M 103.552,-476.059 H 643.658"
         style="fill:none;stroke:#6e6e64;stroke-width:0.138;stroke-linecap:round;stroke-linejoin:round;stroke-miterlimit:10;stroke-dasharray:none;stroke-opacity:1"
         id="path86" />
    </g>
    <path
       d="m 456.96,670.56 h 0.06 v 0.0601 h -0.06 z"
       style="fill:#6e6e64;fill-opacity:1;fill-rule:nonzero;stroke:none"
       id="path88" />
    <g
       id="g90"
       transform="matrix(0,1.041796,-0.959881,0,0,0)">
      <path
         d="M 103.552,-466.683 H 643.658"
         style="fill:none;stroke:#6e6e64;stroke-width:0.138;stroke-linecap:round;stroke-linejoin:round;stroke-miterlimit:10;stroke-dasharray:none;stroke-opacity:1"
         id="path92" />
    </g>
    <path
       d="m 447.96,670.56 h 0.06 v 0.0601 h -0.06 z"
       style="fill:#6e6e64;fill-opacity:1;fill-rule:nonzero;stroke:none"
       id="path94" />
    <g
       id="g96"
       transform="matrix(0,1.041796,-0.959881,0,0,0)">
      <path
         d="M 103.552,-457.307 H 643.658"
         style="fill:none;stroke:#6e6e64;stroke-width:0.138;stroke-linecap:round;stroke-linejoin:round;stroke-miterlimit:10;stroke-dasharray:none;stroke-opacity:1"
         id="path98" />
    </g>
    <path
       d="m 438.96,670.56 h 0.06 v 0.0601 h -0.06 z"
       style="fill:#6e6e64;fill-opacity:1;fill-rule:nonzero;stroke:none"
       id="path100" />
    <g
       id="g102"
       transform="matrix(0,1.041796,-0.959881,0,0,0)">
      <path
         d="M 103.552,-447.805 H 643.658"
         style="fill:none;stroke:#6e6e64;stroke-width:0.138;stroke-linecap:round;stroke-linejoin:round;stroke-miterlimit:10;stroke-dasharray:none;stroke-opacity:1"
         id="path104" />
    </g>
    <path
       d="m 429.78,670.56 h 0.06 v 0.0601 h -0.06 z"
       style="fill:#6e6e64;fill-opacity:1;fill-rule:nonzero;stroke:none"
       id="path106" />
    <g
       id="g108"
       transform="matrix(0,1.041796,-0.959881,0,0,0)">
      <path
         d="M 103.552,-438.367 H 643.658"
         style="fill:none;stroke:#6e6e64;stroke-width:0.138;stroke-linecap:round;stroke-linejoin:round;stroke-miterlimit:10;stroke-dasharray:none;stroke-opacity:1"
         id="path110" />
    </g>
    <path
       d="m 420.78,670.56 h 0.06 v 0.0601 h -0.06 z"
       style="fill:#6e6e64;fill-opacity:1;fill-rule:nonzero;stroke:none"
       id="path112" />
    <g
       id="g114"
       transform="matrix(0,1.041796,-0.959881,0,0,0)">
      <path
         d="M 103.552,-428.991 H 643.658"
         style="fill:none;stroke:#6e6e64;stroke-width:0.138;stroke-linecap:round;stroke-linejoin:round;stroke-miterlimit:10;stroke-dasharray:none;stroke-opacity:1"
         id="path116" />
    </g>
    <path
       d="m 411.78,670.56 h 0.06 v 0.0601 h -0.06 z"
       style="fill:#6e6e64;fill-opacity:1;fill-rule:nonzero;stroke:none"
       id="path118" />
    <g
       id="g120"
       transform="matrix(0,1.041796,-0.959881,0,0,0)">
      <path
         d="M 103.552,-419.614 H 643.658"
         style="fill:none;stroke:#6e6e64;stroke-width:0.138;stroke-linecap:round;stroke-linejoin:round;stroke-miterlimit:10;stroke-dasharray:none;stroke-opacity:1"
         id="path122" />
    </g>
    <path
       d="m 402.78,670.56 h 0.06 v 0.0601 h -0.06 z"
       style="fill:#6e6e64;fill-opacity:1;fill-rule:nonzero;stroke:none"
       id="path124" />
    <g
       id="g126"
       transform="matrix(0,1.041796,-0.959881,0,0,0)">
      <path
         d="M 103.552,-410.238 H 643.658"
         style="fill:none;stroke:#6e6e64;stroke-width:0.138;stroke-linecap:round;stroke-linejoin:round;stroke-miterlimit:10;stroke-dasharray:none;stroke-opacity:1"
         id="path128" />
    </g>
    <path
       d="m 393.78,670.56 h 0.06 v 0.0601 h -0.06 z"
       style="fill:#6e6e64;fill-opacity:1;fill-rule:nonzero;stroke:none"
       id="path130" />
    <g
       id="g132"
       transform="matrix(0,1.041796,-0.959881,0,0,0)">
      <path
         d="M 103.552,-400.737 H 643.658"
         style="fill:none;stroke:#6e6e64;stroke-width:0.138;stroke-linecap:round;stroke-linejoin:round;stroke-miterlimit:10;stroke-dasharray:none;stroke-opacity:1"
         id="path134" />
    </g>
    <path
       d="m 384.66,670.56 h 0.06 v 0.0601 h -0.06 z"
       style="fill:#6e6e64;fill-opacity:1;fill-rule:nonzero;stroke:none"
       id="path136" />
    <g
       id="g138"
       transform="matrix(0,1.041796,-0.959881,0,0,0)">
      <path
         d="M 103.552,-391.361 H 643.658"
         style="fill:none;stroke:#6e6e64;stroke-width:0.138;stroke-linecap:round;stroke-linejoin:round;stroke-miterlimit:10;stroke-dasharray:none;stroke-opacity:1"
         id="path140" />
    </g>
    <path
       d="m 375.66,670.56 h 0.06 v 0.0601 h -0.06 z"
       style="fill:#6e6e64;fill-opacity:1;fill-rule:nonzero;stroke:none"
       id="path142" />
    <g
       id="g144"
       transform="matrix(0,1.041796,-0.959881,0,0,0)">
      <path
         d="M 103.552,-381.985 H 643.658"
         style="fill:none;stroke:#6e6e64;stroke-width:0.138;stroke-linecap:round;stroke-linejoin:round;stroke-miterlimit:10;stroke-dasharray:none;stroke-opacity:1"
         id="path146" />
    </g>
    <path
       d="m 366.66,670.56 h 0.06 v 0.0601 h -0.06 z"
       style="fill:#6e6e64;fill-opacity:1;fill-rule:nonzero;stroke:none"
       id="path148" />
    <g
       id="g150"
       transform="matrix(0,1.041796,-0.959881,0,0,0)">
      <path
         d="M 103.552,-372.609 H 643.658"
         style="fill:none;stroke:#6e6e64;stroke-width:0.138;stroke-linecap:round;stroke-linejoin:round;stroke-miterlimit:10;stroke-dasharray:none;stroke-opacity:1"
         id="path152" />
    </g>
    <path
       d="m 357.66,670.56 h 0.06 v 0.0601 h -0.06 z"
       style="fill:#6e6e64;fill-opacity:1;fill-rule:nonzero;stroke:none"
       id="path154" />
    <g
       id="g156"
       transform="matrix(0,1.041796,-0.959881,0,0,0)">
      <path
         d="M 103.552,-363.107 H 643.658"
         style="fill:none;stroke:#6e6e64;stroke-width:0.138;stroke-linecap:round;stroke-linejoin:round;stroke-miterlimit:10;stroke-dasharray:none;stroke-opacity:1"
         id="path158" />
    </g>
    <path
       d="m 348.54,670.56 h 0.06 v 0.0601 h -0.06 z"
       style="fill:#6e6e64;fill-opacity:1;fill-rule:nonzero;stroke:none"
       id="path160" />
    <g
       id="g162"
       transform="matrix(0,1.041796,-0.959881,0,0,0)">
      <path
         d="M 103.552,-353.731 H 643.658"
         style="fill:none;stroke:#6e6e64;stroke-width:0.138;stroke-linecap:round;stroke-linejoin:round;stroke-miterlimit:10;stroke-dasharray:none;stroke-opacity:1"
         id="path164" />
    </g>
    <path
       d="m 339.54,670.56 h 0.06 v 0.0601 h -0.06 z"
       style="fill:#6e6e64;fill-opacity:1;fill-rule:nonzero;stroke:none"
       id="path166" />
    <g
       id="g168"
       transform="matrix(0,1.041796,-0.959881,0,0,0)">
      <path
         d="M 103.552,-344.355 H 643.658"
         style="fill:none;stroke:#6e6e64;stroke-width:0.138;stroke-linecap:round;stroke-linejoin:round;stroke-miterlimit:10;stroke-dasharray:none;stroke-opacity:1"
         id="path170" />
    </g>
    <path
       d="m 330.54,670.56 h 0.06 v 0.0601 h -0.06 z"
       style="fill:#6e6e64;fill-opacity:1;fill-rule:nonzero;stroke:none"
       id="path172" />
    <g
       id="g174"
       transform="matrix(0,1.041796,-0.959881,0,0,0)">
      <path
         d="M 103.552,-334.979 H 643.658"
         style="fill:none;stroke:#6e6e64;stroke-width:0.138;stroke-linecap:round;stroke-linejoin:round;stroke-miterlimit:10;stroke-dasharray:none;stroke-opacity:1"
         id="path176" />
    </g>
    <path
       d="m 321.48,670.56 h 0.06 v 0.0601 h -0.06 z"
       style="fill:#6e6e64;fill-opacity:1;fill-rule:nonzero;stroke:none"
       id="path178" />
    <g
       id="g180"
       transform="matrix(0,1.041796,-0.959881,0,0,0)">
      <path
         d="M 103.552,-325.54 H 643.658"
         style="fill:none;stroke:#6e6e64;stroke-width:0.138;stroke-linecap:round;stroke-linejoin:round;stroke-miterlimit:10;stroke-dasharray:none;stroke-opacity:1"
         id="path182" />
    </g>
    <path
       d="m 312.48,670.56 h 0.06 v 0.0601 h -0.06 z"
       style="fill:#6e6e64;fill-opacity:1;fill-rule:nonzero;stroke:none"
       id="path184" />
    <g
       id="g186"
       transform="matrix(0,1.041796,-0.959881,0,0,0)">
      <path
         d="M 103.552,-316.039 H 643.658"
         style="fill:none;stroke:#6e6e64;stroke-width:0.138;stroke-linecap:round;stroke-linejoin:round;stroke-miterlimit:10;stroke-dasharray:none;stroke-opacity:1"
         id="path188" />
    </g>
    <path
       d="m 303.36,670.56 h 0.06 v 0.0601 h -0.06 z"
       style="fill:#6e6e64;fill-opacity:1;fill-rule:nonzero;stroke:none"
       id="path190" />
    <g
       id="g192"
       transform="matrix(0,1.041796,-0.959881,0,0,0)">
      <path
         d="M 103.552,-306.663 H 643.658"
         style="fill:none;stroke:#6e6e64;stroke-width:0.138;stroke-linecap:round;stroke-linejoin:round;stroke-miterlimit:10;stroke-dasharray:none;stroke-opacity:1"
         id="path194" />
    </g>
    <path
       d="m 294.36,670.56 h 0.06 v 0.0601 h -0.06 z"
       style="fill:#6e6e64;fill-opacity:1;fill-rule:nonzero;stroke:none"
       id="path196" />
    <g
       id="g198"
       transform="matrix(0,1.041796,-0.959881,0,0,0)">
      <path
         d="M 103.552,-297.287 H 643.658"
         style="fill:none;stroke:#6e6e64;stroke-width:0.138;stroke-linecap:round;stroke-linejoin:round;stroke-miterlimit:10;stroke-dasharray:none;stroke-opacity:1"
         id="path200" />
    </g>
    <path
       d="m 285.36,670.56 h 0.06 v 0.0601 h -0.06 z"
       style="fill:#6e6e64;fill-opacity:1;fill-rule:nonzero;stroke:none"
       id="path202" />
    <g
       id="g204"
       transform="matrix(0,1.041796,-0.959881,0,0,0)">
      <path
         d="M 103.552,-287.911 H 643.658"
         style="fill:none;stroke:#6e6e64;stroke-width:0.138;stroke-linecap:round;stroke-linejoin:round;stroke-miterlimit:10;stroke-dasharray:none;stroke-opacity:1"
         id="path206" />
    </g>
    <path
       d="m 276.36,670.56 h 0.06 v 0.0601 h -0.06 z"
       style="fill:#6e6e64;fill-opacity:1;fill-rule:nonzero;stroke:none"
       id="path208" />
    <g
       id="g210"
       transform="matrix(0,1.041796,-0.959881,0,0,0)">
      <path
         d="M 103.552,-278.534 H 643.658"
         style="fill:none;stroke:#6e6e64;stroke-width:0.138;stroke-linecap:round;stroke-linejoin:round;stroke-miterlimit:10;stroke-dasharray:none;stroke-opacity:1"
         id="path212" />
    </g>
    <path
       d="m 267.36,670.56 h 0.06 v 0.0601 h -0.06 z"
       style="fill:#6e6e64;fill-opacity:1;fill-rule:nonzero;stroke:none"
       id="path214" />
    <g
       id="g216"
       transform="matrix(0,1.041796,-0.959881,0,0,0)">
      <path
         d="M 103.552,-269.033 H 643.658"
         style="fill:none;stroke:#6e6e64;stroke-width:0.138;stroke-linecap:round;stroke-linejoin:round;stroke-miterlimit:10;stroke-dasharray:none;stroke-opacity:1"
         id="path218" />
    </g>
    <path
       d="m 258.24,670.56 h 0.06 v 0.0601 h -0.06 z"
       style="fill:#6e6e64;fill-opacity:1;fill-rule:nonzero;stroke:none"
       id="path220" />
    <g
       id="g222"
       transform="matrix(0,1.041796,-0.959881,0,0,0)">
      <path
         d="M 103.552,-259.657 H 643.658"
         style="fill:none;stroke:#6e6e64;stroke-width:0.138;stroke-linecap:round;stroke-linejoin:round;stroke-miterlimit:10;stroke-dasharray:none;stroke-opacity:1"
         id="path224" />
    </g>
    <path
       d="m 249.24,670.56 h 0.06 v 0.0601 h -0.06 z"
       style="fill:#6e6e64;fill-opacity:1;fill-rule:nonzero;stroke:none"
       id="path226" />
    <g
       id="g228"
       transform="matrix(0,1.041796,-0.959881,0,0,0)">
      <path
         d="M 103.552,-250.281 H 643.658"
         style="fill:none;stroke:#6e6e64;stroke-width:0.138;stroke-linecap:round;stroke-linejoin:round;stroke-miterlimit:10;stroke-dasharray:none;stroke-opacity:1"
         id="path230" />
    </g>
    <path
       d="m 240.24,670.56 h 0.06 v 0.0601 h -0.06 z"
       style="fill:#6e6e64;fill-opacity:1;fill-rule:nonzero;stroke:none"
       id="path232" />
    <g
       id="g234"
       transform="matrix(0,1.041796,-0.959881,0,0,0)">
      <path
         d="M 103.552,-240.905 H 643.658"
         style="fill:none;stroke:#6e6e64;stroke-width:0.138;stroke-linecap:round;stroke-linejoin:round;stroke-miterlimit:10;stroke-dasharray:none;stroke-opacity:1"
         id="path236" />
    </g>
    <path
       d="m 231.24,670.56 h 0.06 v 0.0601 h -0.06 z"
       style="fill:#6e6e64;fill-opacity:1;fill-rule:nonzero;stroke:none"
       id="path238" />
    <g
       id="g240"
       transform="matrix(0,1.041796,-0.959881,0,0,0)">
      <path
         d="M 103.552,-231.341 H 643.658"
         style="fill:none;stroke:#6e6e64;stroke-width:0.138;stroke-linecap:round;stroke-linejoin:round;stroke-miterlimit:10;stroke-dasharray:none;stroke-opacity:1"
         id="path242" />
    </g>
    <path
       d="m 222.06,670.56 h 0.06 v 0.0601 h -0.06 z"
       style="fill:#6e6e64;fill-opacity:1;fill-rule:nonzero;stroke:none"
       id="path244" />
    <g
       id="g246"
       transform="matrix(0,1.041796,-0.959881,0,0,0)">
      <path
         d="M 103.552,-221.965 H 643.658"
         style="fill:none;stroke:#6e6e64;stroke-width:0.138;stroke-linecap:round;stroke-linejoin:round;stroke-miterlimit:10;stroke-dasharray:none;stroke-opacity:1"
         id="path248" />
    </g>
    <path
       d="m 213.06,670.56 h 0.06 v 0.0601 h -0.06 z"
       style="fill:#6e6e64;fill-opacity:1;fill-rule:nonzero;stroke:none"
       id="path250" />
    <g
       id="g252"
       transform="matrix(0,1.041796,-0.959881,0,0,0)">
      <path
         d="M 103.552,-212.589 H 643.658"
         style="fill:none;stroke:#6e6e64;stroke-width:0.138;stroke-linecap:round;stroke-linejoin:round;stroke-miterlimit:10;stroke-dasharray:none;stroke-opacity:1"
         id="path254" />
    </g>
    <path
       d="m 204.06,670.56 h 0.06 v 0.0601 h -0.06 z"
       style="fill:#6e6e64;fill-opacity:1;fill-rule:nonzero;stroke:none"
       id="path256" />
    <g
       id="g258"
       transform="matrix(0,1.041796,-0.959881,0,0,0)">
      <path
         d="M 103.552,-203.213 H 643.658"
         style="fill:none;stroke:#6e6e64;stroke-width:0.138;stroke-linecap:round;stroke-linejoin:round;stroke-miterlimit:10;stroke-dasharray:none;stroke-opacity:1"
         id="path260" />
    </g>
    <path
       d="m 195.06,670.56 h 0.06 v 0.0601 h -0.06 z"
       style="fill:#6e6e64;fill-opacity:1;fill-rule:nonzero;stroke:none"
       id="path262" />
    <g
       id="g264"
       transform="matrix(0,1.041796,-0.959881,0,0,0)">
      <path
         d="M 103.552,-193.836 H 643.658"
         style="fill:none;stroke:#6e6e64;stroke-width:0.138;stroke-linecap:round;stroke-linejoin:round;stroke-miterlimit:10;stroke-dasharray:none;stroke-opacity:1"
         id="path266" />
    </g>
    <path
       d="m 186.06,670.56 h 0.06 v 0.0601 h -0.06 z"
       style="fill:#6e6e64;fill-opacity:1;fill-rule:nonzero;stroke:none"
       id="path268" />
    <g
       id="g270"
       transform="matrix(0,1.041796,-0.959881,0,0,0)">
      <path
         d="M 103.552,-184.335 H 643.658"
         style="fill:none;stroke:#6e6e64;stroke-width:0.138;stroke-linecap:round;stroke-linejoin:round;stroke-miterlimit:10;stroke-dasharray:none;stroke-opacity:1"
         id="path272" />
    </g>
    <path
       d="M 176.94,670.56 H 177 v 0.0601 h -0.06 z"
       style="fill:#6e6e64;fill-opacity:1;fill-rule:nonzero;stroke:none"
       id="path274" />
    <g
       id="g276"
       transform="matrix(0,1.041796,-0.959881,0,0,0)">
      <path
         d="M 103.552,-174.959 H 643.658"
         style="fill:none;stroke:#6e6e64;stroke-width:0.138;stroke-linecap:round;stroke-linejoin:round;stroke-miterlimit:10;stroke-dasharray:none;stroke-opacity:1"
         id="path278" />
    </g>
    <path
       d="M 167.94,670.56 H 168 v 0.0601 h -0.06 z"
       style="fill:#6e6e64;fill-opacity:1;fill-rule:nonzero;stroke:none"
       id="path280" />
    <g
       id="g282"
       transform="matrix(0,1.041796,-0.959881,0,0,0)">
      <path
         d="M 103.552,-165.583 H 643.658"
         style="fill:none;stroke:#6e6e64;stroke-width:0.138;stroke-linecap:round;stroke-linejoin:round;stroke-miterlimit:10;stroke-dasharray:none;stroke-opacity:1"
         id="path284" />
    </g>
    <path
       d="M 158.94,670.56 H 159 v 0.0601 h -0.06 z"
       style="fill:#6e6e64;fill-opacity:1;fill-rule:nonzero;stroke:none"
       id="path286" />
    <g
       id="g288"
       transform="matrix(0,1.041796,-0.959881,0,0,0)">
      <path
         d="M 103.552,-156.207 H 643.658"
         style="fill:none;stroke:#6e6e64;stroke-width:0.138;stroke-linecap:round;stroke-linejoin:round;stroke-miterlimit:10;stroke-dasharray:none;stroke-opacity:1"
         id="path290" />
    </g>
    <path
       d="M 149.94,670.56 H 150 v 0.0601 h -0.06 z"
       style="fill:#6e6e64;fill-opacity:1;fill-rule:nonzero;stroke:none"
       id="path292" />
    <g
       id="g294"
       transform="matrix(0,1.041796,-0.959881,0,0,0)">
      <path
         d="M 103.552,-146.831 H 643.658"
         style="fill:none;stroke:#6e6e64;stroke-width:0.138;stroke-linecap:round;stroke-linejoin:round;stroke-miterlimit:10;stroke-dasharray:none;stroke-opacity:1"
         id="path296" />
    </g>
    <path
       d="M 140.94,670.56 H 141 v 0.0601 h -0.06 z"
       style="fill:#6e6e64;fill-opacity:1;fill-rule:nonzero;stroke:none"
       id="path298" />
    <g
       id="g300"
       transform="matrix(0,1.041796,-0.959881,0,0,0)">
      <path
         d="M 103.552,-137.267 H 643.658"
         style="fill:none;stroke:#6e6e64;stroke-width:0.138;stroke-linecap:round;stroke-linejoin:round;stroke-miterlimit:10;stroke-dasharray:none;stroke-opacity:1"
         id="path302" />
    </g>
    <path
       d="m 131.76,670.56 h 0.06 v 0.0601 h -0.06 z"
       style="fill:#6e6e64;fill-opacity:1;fill-rule:nonzero;stroke:none"
       id="path304" />
    <g
       id="g306"
       transform="matrix(0,1.041796,-0.959881,0,0,0)">
      <path
         d="m 103.552,-524.19 v 387.173"
         style="fill:none;stroke:#6e6e64;stroke-width:0.138;stroke-linecap:round;stroke-linejoin:round;stroke-miterlimit:10;stroke-dasharray:none;stroke-opacity:1"
         id="path308" />
    </g>
    <path
       d="m 131.52,107.88 h 0.06 v 0.06 h -0.06 z"
       style="fill:#6e6e64;fill-opacity:1;fill-rule:nonzero;stroke:none"
       id="path310" />
    <g
       id="g312"
       transform="matrix(0,1.041796,-0.959881,0,0,0)">
      <path
         d="m 126.013,-524.19 v 387.173"
         style="fill:none;stroke:#6e6e64;stroke-width:0.138;stroke-linecap:round;stroke-linejoin:round;stroke-miterlimit:10;stroke-dasharray:none;stroke-opacity:1"
         id="path314" />
    </g>
    <path
       d="m 131.52,131.28 h 0.06 v 0.06 h -0.06 z"
       style="fill:#6e6e64;fill-opacity:1;fill-rule:nonzero;stroke:none"
       id="path316" />
    <g
       id="g318"
       transform="matrix(0,1.041796,-0.959881,0,0,0)">
      <path
         d="m 148.474,-524.19 v 387.173"
         style="fill:none;stroke:#6e6e64;stroke-width:0.138;stroke-linecap:round;stroke-linejoin:round;stroke-miterlimit:10;stroke-dasharray:none;stroke-opacity:1"
         id="path320" />
    </g>
    <path
       d="m 131.52,154.68 h 0.06 v 0.06 h -0.06 z"
       style="fill:#6e6e64;fill-opacity:1;fill-rule:nonzero;stroke:none"
       id="path322" />
    <g
       id="g324"
       transform="matrix(0,1.041796,-0.959881,0,0,0)">
      <path
         d="m 170.936,-524.19 v 387.173"
         style="fill:none;stroke:#6e6e64;stroke-width:0.138;stroke-linecap:round;stroke-linejoin:round;stroke-miterlimit:10;stroke-dasharray:none;stroke-opacity:1"
         id="path326" />
    </g>
    <path
       d="m 131.52,178.08 h 0.06 v 0.06 h -0.06 z"
       style="fill:#6e6e64;fill-opacity:1;fill-rule:nonzero;stroke:none"
       id="path328" />
    <g
       id="g330"
       transform="matrix(0,1.041796,-0.959881,0,0,0)">
      <path
         d="m 193.57,-524.19 v 387.173"
         style="fill:none;stroke:#6e6e64;stroke-width:0.138;stroke-linecap:round;stroke-linejoin:round;stroke-miterlimit:10;stroke-dasharray:none;stroke-opacity:1"
         id="path332" />
    </g>
    <path
       d="m 131.52,201.66 h 0.06 v 0.06 h -0.06 z"
       style="fill:#6e6e64;fill-opacity:1;fill-rule:nonzero;stroke:none"
       id="path334" />
    <g
       id="g336"
       transform="matrix(0,1.041796,-0.959881,0,0,0)">
      <path
         d="m 216.031,-524.19 v 387.173"
         style="fill:none;stroke:#6e6e64;stroke-width:0.138;stroke-linecap:round;stroke-linejoin:round;stroke-miterlimit:10;stroke-dasharray:none;stroke-opacity:1"
         id="path338" />
    </g>
    <path
       d="m 131.52,225.06 h 0.06 v 0.06 h -0.06 z"
       style="fill:#6e6e64;fill-opacity:1;fill-rule:nonzero;stroke:none"
       id="path340" />
    <g
       id="g342"
       transform="matrix(0,1.041796,-0.959881,0,0,0)">
      <path
         d="m 238.492,-524.19 v 387.173"
         style="fill:none;stroke:#6e6e64;stroke-width:0.138;stroke-linecap:round;stroke-linejoin:round;stroke-miterlimit:10;stroke-dasharray:none;stroke-opacity:1"
         id="path344" />
    </g>
    <path
       d="m 131.52,248.46 h 0.06 v 0.06 h -0.06 z"
       style="fill:#6e6e64;fill-opacity:1;fill-rule:nonzero;stroke:none"
       id="path346" />
    <g
       id="g348"
       transform="matrix(0,1.041796,-0.959881,0,0,0)">
      <path
         d="m 261.068,-524.19 v 387.173"
         style="fill:none;stroke:#6e6e64;stroke-width:0.138;stroke-linecap:round;stroke-linejoin:round;stroke-miterlimit:10;stroke-dasharray:none;stroke-opacity:1"
         id="path350" />
    </g>
    <path
       d="m 131.52,271.98 h 0.06 v 0.06 h -0.06 z"
       style="fill:#6e6e64;fill-opacity:1;fill-rule:nonzero;stroke:none"
       id="path352" />
    <g
       id="g354"
       transform="matrix(0,1.041796,-0.959881,0,0,0)">
      <path
         d="m 283.53,-524.19 v 387.173"
         style="fill:none;stroke:#6e6e64;stroke-width:0.138;stroke-linecap:round;stroke-linejoin:round;stroke-miterlimit:10;stroke-dasharray:none;stroke-opacity:1"
         id="path356" />
    </g>
    <path
       d="m 131.52,295.38 h 0.06 v 0.06 h -0.06 z"
       style="fill:#6e6e64;fill-opacity:1;fill-rule:nonzero;stroke:none"
       id="path358" />
    <g
       id="g360"
       transform="matrix(0,1.041796,-0.959881,0,0,0)">
      <path
         d="m 305.991,-524.19 v 387.173"
         style="fill:none;stroke:#6e6e64;stroke-width:0.138;stroke-linecap:round;stroke-linejoin:round;stroke-miterlimit:10;stroke-dasharray:none;stroke-opacity:1"
         id="path362" />
    </g>
    <path
       d="m 131.52,318.78 h 0.06 v 0.06 h -0.06 z"
       style="fill:#6e6e64;fill-opacity:1;fill-rule:nonzero;stroke:none"
       id="path364" />
    <g
       id="g366"
       transform="matrix(0,1.041796,-0.959881,0,0,0)">
      <path
         d="m 328.625,-524.19 v 387.173"
         style="fill:none;stroke:#6e6e64;stroke-width:0.138;stroke-linecap:round;stroke-linejoin:round;stroke-miterlimit:10;stroke-dasharray:none;stroke-opacity:1"
         id="path368" />
    </g>
    <path
       d="m 131.52,342.36 h 0.06 v 0.06 h -0.06 z"
       style="fill:#6e6e64;fill-opacity:1;fill-rule:nonzero;stroke:none"
       id="path370" />
    <g
       id="g372"
       transform="matrix(0,1.041796,-0.959881,0,0,0)">
      <path
         d="m 351.086,-524.19 v 387.173"
         style="fill:none;stroke:#6e6e64;stroke-width:0.138;stroke-linecap:round;stroke-linejoin:round;stroke-miterlimit:10;stroke-dasharray:none;stroke-opacity:1"
         id="path374" />
    </g>
    <path
       d="m 131.52,365.76 h 0.06 v 0.06 h -0.06 z"
       style="fill:#6e6e64;fill-opacity:1;fill-rule:nonzero;stroke:none"
       id="path376" />
    <g
       id="g378"
       transform="matrix(0,1.041796,-0.959881,0,0,0)">
      <path
         d="m 373.547,-524.19 v 387.173"
         style="fill:none;stroke:#6e6e64;stroke-width:0.138;stroke-linecap:round;stroke-linejoin:round;stroke-miterlimit:10;stroke-dasharray:none;stroke-opacity:1"
         id="path380" />
    </g>
    <path
       d="m 131.52,389.16 h 0.06 v 0.06 h -0.06 z"
       style="fill:#6e6e64;fill-opacity:1;fill-rule:nonzero;stroke:none"
       id="path382" />
    <g
       id="g384"
       transform="matrix(0,1.041796,-0.959881,0,0,0)">
      <path
         d="m 396.009,-524.19 v 387.173"
         style="fill:none;stroke:#6e6e64;stroke-width:0.138;stroke-linecap:round;stroke-linejoin:round;stroke-miterlimit:10;stroke-dasharray:none;stroke-opacity:1"
         id="path386" />
    </g>
    <path
       d="m 131.52,412.56 h 0.06 v 0.06 h -0.06 z"
       style="fill:#6e6e64;fill-opacity:1;fill-rule:nonzero;stroke:none"
       id="path388" />
    <g
       id="g390"
       transform="matrix(0,1.041796,-0.959881,0,0,0)">
      <path
         d="m 418.643,-524.19 v 387.173"
         style="fill:none;stroke:#6e6e64;stroke-width:0.138;stroke-linecap:round;stroke-linejoin:round;stroke-miterlimit:10;stroke-dasharray:none;stroke-opacity:1"
         id="path392" />
    </g>
    <path
       d="m 131.52,436.08 h 0.06 v 0.06 h -0.06 z"
       style="fill:#6e6e64;fill-opacity:1;fill-rule:nonzero;stroke:none"
       id="path394" />
    <g
       id="g396"
       transform="matrix(0,1.041796,-0.959881,0,0,0)">
      <path
         d="m 441.104,-524.19 v 387.173"
         style="fill:none;stroke:#6e6e64;stroke-width:0.138;stroke-linecap:round;stroke-linejoin:round;stroke-miterlimit:10;stroke-dasharray:none;stroke-opacity:1"
         id="path398" />
    </g>
    <path
       d="m 131.52,459.54 h 0.06 v 0.06 h -0.06 z"
       style="fill:#6e6e64;fill-opacity:1;fill-rule:nonzero;stroke:none"
       id="path400" />
    <g
       id="g402"
       transform="matrix(0,1.041796,-0.959881,0,0,0)">
      <path
         d="m 463.565,-524.19 v 387.173"
         style="fill:none;stroke:#6e6e64;stroke-width:0.138;stroke-linecap:round;stroke-linejoin:round;stroke-miterlimit:10;stroke-dasharray:none;stroke-opacity:1"
         id="path404" />
    </g>
    <path
       d="m 131.52,482.94 h 0.06 V 483 h -0.06 z"
       style="fill:#6e6e64;fill-opacity:1;fill-rule:nonzero;stroke:none"
       id="path406" />
    <g
       id="g408"
       transform="matrix(0,1.041796,-0.959881,0,0,0)">
      <path
         d="m 486.141,-524.19 v 387.173"
         style="fill:none;stroke:#6e6e64;stroke-width:0.138;stroke-linecap:round;stroke-linejoin:round;stroke-miterlimit:10;stroke-dasharray:none;stroke-opacity:1"
         id="path410" />
    </g>
    <path
       d="m 131.52,506.46 h 0.06 v 0.06 h -0.06 z"
       style="fill:#6e6e64;fill-opacity:1;fill-rule:nonzero;stroke:none"
       id="path412" />
    <g
       id="g414"
       transform="matrix(0,1.041796,-0.959881,0,0,0)">
      <path
         d="m 508.603,-524.19 v 387.173"
         style="fill:none;stroke:#6e6e64;stroke-width:0.138;stroke-linecap:round;stroke-linejoin:round;stroke-miterlimit:10;stroke-dasharray:none;stroke-opacity:1"
         id="path416" />
    </g>
    <path
       d="m 131.52,529.86 h 0.06 v 0.06 h -0.06 z"
       style="fill:#6e6e64;fill-opacity:1;fill-rule:nonzero;stroke:none"
       id="path418" />
    <g
       id="g420"
       transform="matrix(0,1.041796,-0.959881,0,0,0)">
      <path
         d="m 531.064,-524.19 v 387.173"
         style="fill:none;stroke:#6e6e64;stroke-width:0.138;stroke-linecap:round;stroke-linejoin:round;stroke-miterlimit:10;stroke-dasharray:none;stroke-opacity:1"
         id="path422" />
    </g>
    <path
       d="m 131.52,553.26 h 0.06 v 0.0599 h -0.06 z"
       style="fill:#6e6e64;fill-opacity:1;fill-rule:nonzero;stroke:none"
       id="path424" />
    <g
       id="g426"
       transform="matrix(0,1.041796,-0.959881,0,0,0)">
      <path
         d="m 553.698,-524.19 v 387.173"
         style="fill:none;stroke:#6e6e64;stroke-width:0.138;stroke-linecap:round;stroke-linejoin:round;stroke-miterlimit:10;stroke-dasharray:none;stroke-opacity:1"
         id="path428" />
    </g>
    <path
       d="m 131.52,576.84 h 0.06 v 0.06 h -0.06 z"
       style="fill:#6e6e64;fill-opacity:1;fill-rule:nonzero;stroke:none"
       id="path430" />
    <g
       id="g432"
       transform="matrix(0,1.041796,-0.959881,0,0,0)">
      <path
         d="m 576.159,-524.19 v 387.173"
         style="fill:none;stroke:#6e6e64;stroke-width:0.138;stroke-linecap:round;stroke-linejoin:round;stroke-miterlimit:10;stroke-dasharray:none;stroke-opacity:1"
         id="path434" />
    </g>
    <path
       d="m 131.52,600.24 h 0.06 v 0.06 h -0.06 z"
       style="fill:#6e6e64;fill-opacity:1;fill-rule:nonzero;stroke:none"
       id="path436" />
    <g
       id="g438"
       transform="matrix(0,1.041796,-0.959881,0,0,0)">
      <path
         d="m 598.62,-524.19 v 387.173"
         style="fill:none;stroke:#6e6e64;stroke-width:0.138;stroke-linecap:round;stroke-linejoin:round;stroke-miterlimit:10;stroke-dasharray:none;stroke-opacity:1"
         id="path440" />
    </g>
    <path
       d="m 131.52,623.64 h 0.06 v 0.0599 h -0.06 z"
       style="fill:#6e6e64;fill-opacity:1;fill-rule:nonzero;stroke:none"
       id="path442" />
    <g
       id="g444"
       transform="matrix(0,1.041796,-0.959881,0,0,0)">
      <path
         d="m 621.082,-524.19 v 387.173"
         style="fill:none;stroke:#6e6e64;stroke-width:0.138;stroke-linecap:round;stroke-linejoin:round;stroke-miterlimit:10;stroke-dasharray:none;stroke-opacity:1"
         id="path446" />
    </g>
    <path
       d="m 131.52,647.04 h 0.06 v 0.06 h -0.06 z"
       style="fill:#6e6e64;fill-opacity:1;fill-rule:nonzero;stroke:none"
       id="path448" />
    <g
       id="g450"
       transform="matrix(0,1.041796,-0.959881,0,0,0)">
      <path
         d="m 643.658,-524.19 v 387.173"
         style="fill:none;stroke:#6e6e64;stroke-width:0.138;stroke-linecap:round;stroke-linejoin:round;stroke-miterlimit:10;stroke-dasharray:none;stroke-opacity:1"
         id="path452" />
    </g>
    <path
       d="m 131.52,670.56 h 0.06 v 0.0601 h -0.06 z"
       style="fill:#6e6e64;fill-opacity:1;fill-rule:nonzero;stroke:none"
       id="path454" />
    <g
       id="g456"
       transform="matrix(0,1.041796,-0.959881,0,0,0)">
      <path
         d="m 373.547,-524.19 v 387.173"
         style="fill:none;stroke:#6e6e64;stroke-width:1.239;stroke-linecap:round;stroke-linejoin:round;stroke-miterlimit:10;stroke-dasharray:none;stroke-opacity:1"
         id="path458" />
    </g>
    <path
       d="m 131.52,389.16 h 0.06 v 0.06 h -0.06 z"
       style="fill:#6e6e64;fill-opacity:1;fill-rule:nonzero;stroke:none"
       id="path460" />
    <g
       id="g462"
       transform="matrix(0,1.041796,-0.959881,0,0,0)">
      <path
         d="m 643.658,-524.19 v 387.173"
         style="fill:none;stroke:#6e6e64;stroke-width:1.239;stroke-linecap:round;stroke-linejoin:round;stroke-miterlimit:10;stroke-dasharray:none;stroke-opacity:1"
         id="path464" />
    </g>
    <path
       d="m 131.52,670.56 h 0.06 v 0.0601 h -0.06 z"
       style="fill:#6e6e64;fill-opacity:1;fill-rule:nonzero;stroke:none"
       id="path466" />
    <g
       id="g468"
       transform="matrix(0,1.041796,-0.959881,0,0,0)">
      <path
         d="M 103.264,-513.689 H 667.905"
         style="fill:none;stroke:#6e6e64;stroke-width:0.689;stroke-linecap:round;stroke-linejoin:round;stroke-miterlimit:10;stroke-dasharray:none;stroke-opacity:1"
         id="path470" />
    </g>
    <path
       d="m 493.08,695.82 h 0.06 v 0.0601 h -0.06 z"
       style="fill:#6e6e64;fill-opacity:1;fill-rule:nonzero;stroke:none"
       id="path472" />
    <g
       id="g474"
       transform="matrix(0,1.041796,-0.959881,0,0,0)">
      <path
         d="M 103.264,-494.811 H 667.905"
         style="fill:none;stroke:#6e6e64;stroke-width:0.689;stroke-linecap:round;stroke-linejoin:round;stroke-miterlimit:10;stroke-dasharray:none;stroke-opacity:1"
         id="path476" />
    </g>
    <path
       d="m 474.96,695.82 h 0.06 v 0.0601 h -0.06 z"
       style="fill:#6e6e64;fill-opacity:1;fill-rule:nonzero;stroke:none"
       id="path478" />
    <g
       id="g480"
       transform="matrix(0,1.041796,-0.959881,0,0,0)">
      <path
         d="M 103.264,-476.059 H 667.905"
         style="fill:none;stroke:#6e6e64;stroke-width:0.689;stroke-linecap:round;stroke-linejoin:round;stroke-miterlimit:10;stroke-dasharray:none;stroke-opacity:1"
         id="path482" />
    </g>
    <path
       d="m 456.96,695.82 h 0.06 v 0.0601 h -0.06 z"
       style="fill:#6e6e64;fill-opacity:1;fill-rule:nonzero;stroke:none"
       id="path484" />
    <g
       id="g486"
       transform="matrix(0,1.041796,-0.959881,0,0,0)">
      <path
         d="M 103.264,-457.307 H 667.905"
         style="fill:none;stroke:#6e6e64;stroke-width:0.689;stroke-linecap:round;stroke-linejoin:round;stroke-miterlimit:10;stroke-dasharray:none;stroke-opacity:1"
         id="path488" />
    </g>
    <path
       d="m 438.96,695.82 h 0.06 v 0.0601 h -0.06 z"
       style="fill:#6e6e64;fill-opacity:1;fill-rule:nonzero;stroke:none"
       id="path490" />
    <g
       id="g492"
       transform="matrix(0,1.041796,-0.959881,0,0,0)">
      <path
         d="M 103.264,-438.367 H 667.905"
         style="fill:none;stroke:#6e6e64;stroke-width:0.689;stroke-linecap:round;stroke-linejoin:round;stroke-miterlimit:10;stroke-dasharray:none;stroke-opacity:1"
         id="path494" />
    </g>
    <path
       d="m 420.78,695.82 h 0.06 v 0.0601 h -0.06 z"
       style="fill:#6e6e64;fill-opacity:1;fill-rule:nonzero;stroke:none"
       id="path496" />
    <g
       id="g498"
       transform="matrix(0,1.041796,-0.959881,0,0,0)">
      <path
         d="M 103.264,-419.614 H 667.905"
         style="fill:none;stroke:#6e6e64;stroke-width:0.689;stroke-linecap:round;stroke-linejoin:round;stroke-miterlimit:10;stroke-dasharray:none;stroke-opacity:1"
         id="path500" />
    </g>
    <path
       d="m 402.78,695.82 h 0.06 v 0.0601 h -0.06 z"
       style="fill:#6e6e64;fill-opacity:1;fill-rule:nonzero;stroke:none"
       id="path502" />
    <g
       id="g504"
       transform="matrix(0,1.041796,-0.959881,0,0,0)">
      <path
         d="M 103.264,-400.737 H 667.905"
         style="fill:none;stroke:#6e6e64;stroke-width:0.689;stroke-linecap:round;stroke-linejoin:round;stroke-miterlimit:10;stroke-dasharray:none;stroke-opacity:1"
         id="path506" />
    </g>
    <path
       d="m 384.66,695.82 h 0.06 v 0.0601 h -0.06 z"
       style="fill:#6e6e64;fill-opacity:1;fill-rule:nonzero;stroke:none"
       id="path508" />
    <g
       id="g510"
       transform="matrix(0,1.041796,-0.959881,0,0,0)">
      <path
         d="M 103.264,-381.985 H 667.905"
         style="fill:none;stroke:#6e6e64;stroke-width:0.689;stroke-linecap:round;stroke-linejoin:round;stroke-miterlimit:10;stroke-dasharray:none;stroke-opacity:1"
         id="path512" />
    </g>
    <path
       d="m 366.66,695.82 h 0.06 v 0.0601 h -0.06 z"
       style="fill:#6e6e64;fill-opacity:1;fill-rule:nonzero;stroke:none"
       id="path514" />
    <g
       id="g516"
       transform="matrix(0,1.041796,-0.959881,0,0,0)">
      <path
         d="M 103.264,-363.107 H 667.905"
         style="fill:none;stroke:#6e6e64;stroke-width:0.689;stroke-linecap:round;stroke-linejoin:round;stroke-miterlimit:10;stroke-dasharray:none;stroke-opacity:1"
         id="path518" />
    </g>
    <path
       d="m 348.54,695.82 h 0.06 v 0.0601 h -0.06 z"
       style="fill:#6e6e64;fill-opacity:1;fill-rule:nonzero;stroke:none"
       id="path520" />
    <g
       id="g522"
       transform="matrix(0,1.041796,-0.959881,0,0,0)">
      <path
         d="M 103.264,-344.355 H 667.905"
         style="fill:none;stroke:#6e6e64;stroke-width:0.689;stroke-linecap:round;stroke-linejoin:round;stroke-miterlimit:10;stroke-dasharray:none;stroke-opacity:1"
         id="path524" />
    </g>
    <path
       d="m 330.54,695.82 h 0.06 v 0.0601 h -0.06 z"
       style="fill:#6e6e64;fill-opacity:1;fill-rule:nonzero;stroke:none"
       id="path526" />
    <g
       id="g528"
       transform="matrix(0,1.041796,-0.959881,0,0,0)">
      <path
         d="M 103.264,-325.54 H 667.905"
         style="fill:none;stroke:#6e6e64;stroke-width:0.689;stroke-linecap:round;stroke-linejoin:round;stroke-miterlimit:10;stroke-dasharray:none;stroke-opacity:1"
         id="path530" />
    </g>
    <path
       d="m 312.48,695.82 h 0.06 v 0.0601 h -0.06 z"
       style="fill:#6e6e64;fill-opacity:1;fill-rule:nonzero;stroke:none"
       id="path532" />
    <g
       id="g534"
       transform="matrix(0,1.041796,-0.959881,0,0,0)">
      <path
         d="M 103.264,-306.663 H 667.905"
         style="fill:none;stroke:#6e6e64;stroke-width:0.689;stroke-linecap:round;stroke-linejoin:round;stroke-miterlimit:10;stroke-dasharray:none;stroke-opacity:1"
         id="path536" />
    </g>
    <path
       d="m 294.36,695.82 h 0.06 v 0.0601 h -0.06 z"
       style="fill:#6e6e64;fill-opacity:1;fill-rule:nonzero;stroke:none"
       id="path538" />
    <g
       id="g540"
       transform="matrix(0,1.041796,-0.959881,0,0,0)">
      <path
         d="M 103.264,-287.911 H 667.905"
         style="fill:none;stroke:#6e6e64;stroke-width:0.689;stroke-linecap:round;stroke-linejoin:round;stroke-miterlimit:10;stroke-dasharray:none;stroke-opacity:1"
         id="path542" />
    </g>
    <path
       d="m 276.36,695.82 h 0.06 v 0.0601 h -0.06 z"
       style="fill:#6e6e64;fill-opacity:1;fill-rule:nonzero;stroke:none"
       id="path544" />
    <g
       id="g546"
       transform="matrix(0,1.041796,-0.959881,0,0,0)">
      <path
         d="M 103.264,-269.033 H 667.905"
         style="fill:none;stroke:#6e6e64;stroke-width:0.689;stroke-linecap:round;stroke-linejoin:round;stroke-miterlimit:10;stroke-dasharray:none;stroke-opacity:1"
         id="path548" />
    </g>
    <path
       d="m 258.24,695.82 h 0.06 v 0.0601 h -0.06 z"
       style="fill:#6e6e64;fill-opacity:1;fill-rule:nonzero;stroke:none"
       id="path550" />
    <g
       id="g552"
       transform="matrix(0,1.041796,-0.959881,0,0,0)">
      <path
         d="M 103.264,-250.281 H 667.905"
         style="fill:none;stroke:#6e6e64;stroke-width:0.689;stroke-linecap:round;stroke-linejoin:round;stroke-miterlimit:10;stroke-dasharray:none;stroke-opacity:1"
         id="path554" />
    </g>
    <path
       d="m 240.24,695.82 h 0.06 v 0.0601 h -0.06 z"
       style="fill:#6e6e64;fill-opacity:1;fill-rule:nonzero;stroke:none"
       id="path556" />
    <g
       id="g558"
       transform="matrix(0,1.041796,-0.959881,0,0,0)">
      <path
         d="M 103.264,-231.341 H 667.905"
         style="fill:none;stroke:#6e6e64;stroke-width:0.689;stroke-linecap:round;stroke-linejoin:round;stroke-miterlimit:10;stroke-dasharray:none;stroke-opacity:1"
         id="path560" />
    </g>
    <path
       d="m 222.06,695.82 h 0.06 v 0.0601 h -0.06 z"
       style="fill:#6e6e64;fill-opacity:1;fill-rule:nonzero;stroke:none"
       id="path562" />
    <g
       id="g564"
       transform="matrix(0,1.041796,-0.959881,0,0,0)">
      <path
         d="M 103.264,-212.589 H 667.905"
         style="fill:none;stroke:#6e6e64;stroke-width:0.689;stroke-linecap:round;stroke-linejoin:round;stroke-miterlimit:10;stroke-dasharray:none;stroke-opacity:1"
         id="path566" />
    </g>
    <path
       d="m 204.06,695.82 h 0.06 v 0.0601 h -0.06 z"
       style="fill:#6e6e64;fill-opacity:1;fill-rule:nonzero;stroke:none"
       id="path568" />
    <g
       id="g570"
       transform="matrix(0,1.041796,-0.959881,0,0,0)">
      <path
         d="M 103.264,-193.836 H 667.905"
         style="fill:none;stroke:#6e6e64;stroke-width:0.689;stroke-linecap:round;stroke-linejoin:round;stroke-miterlimit:10;stroke-dasharray:none;stroke-opacity:1"
         id="path572" />
    </g>
    <path
       d="m 186.06,695.82 h 0.06 v 0.0601 h -0.06 z"
       style="fill:#6e6e64;fill-opacity:1;fill-rule:nonzero;stroke:none"
       id="path574" />
    <g
       id="g576"
       transform="matrix(0,1.041796,-0.959881,0,0,0)">
      <path
         d="M 103.264,-174.959 H 667.905"
         style="fill:none;stroke:#6e6e64;stroke-width:0.689;stroke-linecap:round;stroke-linejoin:round;stroke-miterlimit:10;stroke-dasharray:none;stroke-opacity:1"
         id="path578" />
    </g>
    <path
       d="M 167.94,695.82 H 168 v 0.0601 h -0.06 z"
       style="fill:#6e6e64;fill-opacity:1;fill-rule:nonzero;stroke:none"
       id="path580" />
    <g
       id="g582"
       transform="matrix(0,1.041796,-0.959881,0,0,0)">
      <path
         d="M 103.264,-156.207 H 667.905"
         style="fill:none;stroke:#6e6e64;stroke-width:0.689;stroke-linecap:round;stroke-linejoin:round;stroke-miterlimit:10;stroke-dasharray:none;stroke-opacity:1"
         id="path584" />
    </g>
    <path
       d="M 149.94,695.82 H 150 v 0.0601 h -0.06 z"
       style="fill:#6e6e64;fill-opacity:1;fill-rule:nonzero;stroke:none"
       id="path586" />
    <g
       id="g588"
       transform="matrix(0,1.041796,-0.959881,0,0,0)">
      <path
         d="M 103.264,-137.267 H 667.905"
         style="fill:none;stroke:#6e6e64;stroke-width:0.689;stroke-linecap:round;stroke-linejoin:round;stroke-miterlimit:10;stroke-dasharray:none;stroke-opacity:1"
         id="path590" />
    </g>
    <path
       d="m 131.76,695.82 h 0.06 v 0.0601 h -0.06 z"
       style="fill:#6e6e64;fill-opacity:1;fill-rule:nonzero;stroke:none"
       id="path592" />
    <g
       id="g594"
       transform="matrix(0,1.041796,-0.959881,0,0,0)">
      <path
         d="m 103.552,-501.437 c 2.605,7.042 5.369,14.018 8.121,21.002 2.166,5.965 5.082,12.742 8.12,18.315 4.782,9.673 10.676,18.751 16.99,27.441 5.252,7.191 10.971,13.826 16.932,20.44 5.51,5.828 11.09,11.599 17.105,16.94 20.262,18.823 43.036,34.757 67.269,48.006 21.463,11.764 44.052,21.38 67.211,29.378 11.25,4.023 22.674,7.469 34.095,10.752 11.273,3.148 22.602,6.191 34.037,8.813 22.185,5.405 44.684,9.676 67.211,13.815 22.381,3.887 44.822,7.517 67.268,10.626 22.425,3.361 44.908,6.245 67.384,9.126 11.301,1.454 22.63,2.699 33.922,4.251 11.337,1.159 22.697,2.756 34.038,3.875"
         style="fill:none;stroke:#c00000;stroke-width:1.239;stroke-linecap:round;stroke-linejoin:round;stroke-miterlimit:10;stroke-dasharray:none;stroke-opacity:1"
         id="path596" />
    </g>
    <g
       id="g598"
       transform="matrix(0,1.041796,-0.959881,0,0,0)">
      <path
         d="m 103.552,-482.685 c 5.118,12.932 9.987,26.707 16.241,39.068 4.787,9.601 10.611,19.183 16.99,27.816 2.544,3.671 5.286,7.199 8.121,10.626 2.83,3.569 5.901,6.857 8.811,10.376 5.571,5.87 11.117,11.789 17.105,17.252 20.213,19.117 43.018,35.42 67.269,48.944 42.278,23.679 88.515,38.451 135.343,49.944 5.446,1.076 10.785,2.58 16.241,3.687 5.635,1.267 11.246,2.53 16.933,3.626 2.585,0.717 5.515,1.098 8.178,1.625 2.926,0.791 5.921,1.239 8.927,1.813 5.633,1.091 11.314,2.064 16.932,3.188 22.388,3.994 44.818,7.482 67.268,10.876 5.325,0.534 10.984,1.711 16.299,2.188 5.566,1.086 11.464,1.52 17.048,2.5 11.346,1.442 22.679,3.008 34.037,4.438 22.637,2.875 45.282,5.697 67.96,8.251"
         style="fill:none;stroke:#ff8000;stroke-width:1.239;stroke-linecap:round;stroke-linejoin:round;stroke-miterlimit:10;stroke-dasharray:none;stroke-opacity:1"
         id="path600" />
    </g>
    <g
       id="g602"
       transform="matrix(0,1.041796,-0.959881,0,0,0)">
      <path
         d="m 103.552,-459.494 c 2.628,6.664 5.316,13.287 8.121,19.877 2.385,6.156 5.159,12.725 8.12,18.627 4.763,9.76 10.678,19.663 16.99,28.504 9.93,14.12 21.648,27.22 34.037,39.192 20.215,19.41 42.903,36.277 67.269,50.069 10.817,6.224 21.876,11.825 33.173,16.94 11.155,5.005 22.518,9.577 34.038,13.814 22.396,7.943 45.086,14.618 68.132,20.252 44.261,10.865 89.426,18.539 134.479,25.253 11.068,1.599 22.254,3.326 33.347,4.688 5.552,0.967 11.39,1.621 16.99,2.376 5.636,0.7 11.421,1.658 17.047,2.188 5.644,0.867 11.312,1.6 16.99,2.187 5.526,0.917 11.402,1.335 16.932,2.251 11.352,1.312 22.704,2.675 34.038,4.125"
         style="fill:none;stroke:#008000;stroke-width:1.239;stroke-linecap:round;stroke-linejoin:round;stroke-miterlimit:10;stroke-dasharray:none;stroke-opacity:1"
         id="path604" />
    </g>
    <g
       id="g606"
       transform="matrix(0,1.041796,-0.959881,0,0,0)">
      <path
         d="m 103.552,-436.492 c 5.285,12.741 10.39,25.579 16.241,38.068 4.813,10.2 10.587,19.971 16.99,29.253 9.831,14.176 21.658,27.995 34.037,40.005 19.784,19.674 43.152,37.415 67.269,51.319 10.717,6.493 21.924,12.018 33.173,17.377 0.9,0.158 2.75,1.312 3.744,1.688 1.314,0.687 3.243,1.272 4.435,2.063 2.863,0.954 6.057,2.588 8.927,3.688 5.619,2.298 11.221,4.509 16.932,6.625 11.275,4.078 22.628,7.952 34.095,11.314 2.659,0.945 5.389,1.608 8.12,2.376 2.739,0.913 6.003,1.808 8.812,2.437 2.646,0.803 5.435,1.605 8.121,2.251 3.012,0.677 5.966,1.633 8.984,2.313 44.172,11.04 89.384,18.88 134.479,25.69 45.047,6.814 90.178,12.519 135.344,18.065"
         style="fill:none;stroke:#ff8000;stroke-width:1.239;stroke-linecap:round;stroke-linejoin:round;stroke-miterlimit:10;stroke-dasharray:none;stroke-opacity:1"
         id="path608" />
    </g>
    <g
       id="g610"
       transform="matrix(0,1.041796,-0.959881,0,0,0)">
      <path
         d="m 103.552,-417.552 c 2.612,6.329 5.399,12.585 8.121,18.878 2.745,6.173 5.081,12.634 8.12,18.627 2.46,5.302 5.076,10.605 8.178,15.564 2.589,4.96 5.711,9.609 8.812,14.252 9.967,14.702 21.487,28.282 34.037,40.818 10.394,10.462 21.526,20.313 33.232,29.253 10.655,8.221 22.426,16.238 34.037,23.003 21.338,12.834 43.925,23.215 67.211,32.004 11.173,4.118 22.693,8.141 34.095,11.439 5.494,1.928 11.388,3.349 16.932,5.126 5.658,1.313 11.443,3.175 17.105,4.375 0.601,0.333 2.804,0.74 3.686,1 1.505,0.255 2.895,0.963 4.435,1.063 2.597,0.718 5.485,1.431 8.12,1.938 l 0.692,0.312 0.806,0.125 1.382,0.25 0.864,0.188 c 1.43,0.436 2.929,0.688 4.377,1.062 2.936,0.527 5.873,1.488 8.812,1.938 11.254,2.444 22.679,4.825 34.037,6.876 11.042,2.173 22.154,4.056 33.231,5.938 11.302,1.863 22.712,3.825 34.037,5.376 22.425,3.598 44.92,6.59 67.384,9.689 11.3,1.493 22.64,2.927 33.922,4.438 5.64,0.693 11.52,1.285 17.105,2.187 5.553,0.574 11.41,1.262 16.933,2.063"
         style="fill:none;stroke:#c00000;stroke-width:1.239;stroke-linecap:round;stroke-linejoin:round;stroke-miterlimit:10;stroke-dasharray:none;stroke-opacity:1"
         id="path612" />
    </g>
    <text
       xml:space="preserve"
       transform="matrix(0,1,1,0,252.9,675.66143)"
       style="font-variant:normal;font-weight:normal;font-stretch:normal;font-size:9.4001px;font-family:Arial;-inkscape-font-specification:ArialMT;writing-mode:lr-tb;fill:#c00000;fill-opacity:1;fill-rule:nonzero;stroke:none"
       id="text624"><tspan
         x="0 5.2302155 8.3642092"
         y="0"
         sodipodi:role="line"
         id="tspan614">3rd</tspan><tspan
         x="-3.661339 1.5698167 6.8009725 9.4189005"
         y="-21.299686"
         sodipodi:role="line"
         id="tspan616">15th</tspan><tspan
         x="-3.661339 1.5698167 6.8009725 9.4189005"
         y="-47.519386"
         sodipodi:role="line"
         id="tspan618">50th</tspan><tspan
         x="-3.661339 1.5698167 6.8009725 9.4189005"
         y="-73.55954"
         sodipodi:role="line"
         id="tspan620">85th</tspan><tspan
         x="-3.661339 1.5698167 6.8009725 9.4189005"
         y="-94.919388"
         sodipodi:role="line"
         id="tspan622">97th</tspan></text>
    <text
       xml:space="preserve"
       transform="matrix(0,1,1,0,511.2599,69.96)"
       style="font-variant:normal;font-weight:normal;font-stretch:normal;font-size:8.0761px;font-family:Arial;-inkscape-font-specification:ArialMT;writing-mode:lr-tb;fill:#ffffff;fill-opacity:1;fill-rule:nonzero;stroke:none"
       id="text628"><tspan
         x="0 6.7370825 11.237085 15.737088 17.991936 22.491938 82.311615 129.23051 176.0291 223.00777 267.52646 272.02646 363.70474 410.50333 457.42224 504.40091 548.7395 553.2395"
         y="0"
         sodipodi:role="line"
         id="tspan626">Months246810246810</tspan></text>
    <g
       id="g630"
       transform="matrix(0,1.041796,-0.959881,0,0,0)">
      <path
         d="m 373.547,-524.19 v -5.938"
         style="fill:none;stroke:#6e6e64;stroke-width:1.239;stroke-linecap:round;stroke-linejoin:round;stroke-miterlimit:10;stroke-dasharray:none;stroke-opacity:1"
         id="path632" />
    </g>
    <path
       d="m 508.86,389.16 h 0.06 v 0.06 h -0.06 z"
       style="fill:#6e6e64;fill-opacity:1;fill-rule:nonzero;stroke:none"
       id="path634" />
    <g
       id="g636"
       transform="matrix(0,1.041796,-0.959881,0,0,0)">
      <path
         d="m 643.658,-524.19 v -5.938"
         style="fill:none;stroke:#6e6e64;stroke-width:1.239;stroke-linecap:round;stroke-linejoin:round;stroke-miterlimit:10;stroke-dasharray:none;stroke-opacity:1"
         id="path638" />
    </g>
    <path
       d="m 508.86,670.56 h 0.06 v 0.0601 h -0.06 z"
       style="fill:#6e6e64;fill-opacity:1;fill-rule:nonzero;stroke:none"
       id="path640" />
    <text
       xml:space="preserve"
       transform="matrix(0,1,1,0,521.9399,95.94)"
       style="font-variant:normal;font-weight:normal;font-stretch:normal;font-size:10.724px;font-family:Arial;-inkscape-font-specification:ArialMT;writing-mode:lr-tb;fill:#ffffff;fill-opacity:1;fill-rule:nonzero;stroke:none"
       id="text644"><tspan
         x="0 7.179718 9.5872564 13.185158 16.193239 277.19073 283.18866 286.19031 291.52979 297.51913 303.50851 555.68768 561.677 564.67865 570.01813 576.00751 581.99683 585.59473"
         y="0"
         sodipodi:role="line"
         id="tspan642">Birth1 year2 years</tspan></text>
    <text
       xml:space="preserve"
       transform="matrix(0,1,1,0,497.0399,92.52)"
       style="font-variant:normal;font-weight:normal;font-stretch:normal;font-size:8.0761px;font-family:Arial;-inkscape-font-specification:ArialMT;writing-mode:lr-tb;fill:#ffffff;fill-opacity:1;fill-rule:nonzero;stroke:none"
       id="text730"><tspan
         x="0 4.4983878"
         y="0"
         sodipodi:role="line"
         id="tspan646">31</tspan><tspan
         x="0 4.4983878"
         y="-18.119537"
         sodipodi:role="line"
         id="tspan648">32</tspan><tspan
         x="0 4.4983878"
         y="-36.119549"
         sodipodi:role="line"
         id="tspan650">33</tspan><tspan
         x="0 4.4983878"
         y="-54.11956"
         sodipodi:role="line"
         id="tspan652">34</tspan><tspan
         x="0 4.4983878"
         y="-72.239906"
         sodipodi:role="line"
         id="tspan654">35</tspan><tspan
         x="0 4.4983878"
         y="-90.239922"
         sodipodi:role="line"
         id="tspan656">36</tspan><tspan
         x="0 4.4983878"
         y="-108.42003"
         sodipodi:role="line"
         id="tspan658">37</tspan><tspan
         x="0 4.4983878"
         y="-126.42004"
         sodipodi:role="line"
         id="tspan660">38</tspan><tspan
         x="0 4.4983878"
         y="-144.54037"
         sodipodi:role="line"
         id="tspan662">39</tspan><tspan
         x="0 4.4983878"
         y="-162.54041"
         sodipodi:role="line"
         id="tspan664">40</tspan><tspan
         x="0 4.4983878"
         y="-180.54041"
         sodipodi:role="line"
         id="tspan666">41</tspan><tspan
         x="0 4.4983878"
         y="-198.72052"
         sodipodi:role="line"
         id="tspan668">42</tspan><tspan
         x="0 4.4983878"
         y="-216.72054"
         sodipodi:role="line"
         id="tspan670">43</tspan><tspan
         x="0 4.4983878"
         y="-234.84007"
         sodipodi:role="line"
         id="tspan672">44</tspan><tspan
         x="0 4.4983878"
         y="-252.84007"
         sodipodi:role="line"
         id="tspan674">45</tspan><tspan
         x="0 4.4983878"
         y="-270.96042"
         sodipodi:role="line"
         id="tspan676">46</tspan><tspan
         x="0 4.4983878"
         y="-289.0202"
         sodipodi:role="line"
         id="tspan678">47</tspan><tspan
         x="0 4.4983878"
         y="-307.0202"
         sodipodi:role="line"
         id="tspan680">48</tspan><tspan
         x="0 4.4983878"
         y="-325.14056"
         sodipodi:role="line"
         id="tspan682">49</tspan><tspan
         x="0 4.4983878"
         y="-343.14056"
         sodipodi:role="line"
         id="tspan684">50</tspan><tspan
         x="0 4.4983878"
         y="-361.26089"
         sodipodi:role="line"
         id="tspan686">51</tspan><tspan
         x="608.5188 613.01715"
         y="-0.00161522"
         sodipodi:role="line"
         id="tspan688">31</tspan><tspan
         x="608.5188 613.01715"
         y="-18.121153"
         sodipodi:role="line"
         id="tspan690">32</tspan><tspan
         x="608.5188 613.01715"
         y="-36.121166"
         sodipodi:role="line"
         id="tspan692">33</tspan><tspan
         x="608.5188 613.01715"
         y="-54.121178"
         sodipodi:role="line"
         id="tspan694">34</tspan><tspan
         x="608.5188 613.01715"
         y="-72.241524"
         sodipodi:role="line"
         id="tspan696">35</tspan><tspan
         x="608.5188 613.01715"
         y="-90.241531"
         sodipodi:role="line"
         id="tspan698">36</tspan><tspan
         x="608.5188 613.01715"
         y="-108.42164"
         sodipodi:role="line"
         id="tspan700">37</tspan><tspan
         x="608.5188 613.01715"
         y="-126.42165"
         sodipodi:role="line"
         id="tspan702">38</tspan><tspan
         x="608.5188 613.01715"
         y="-144.54201"
         sodipodi:role="line"
         id="tspan704">39</tspan><tspan
         x="608.5188 613.01715"
         y="-162.54201"
         sodipodi:role="line"
         id="tspan706">40</tspan><tspan
         x="608.5188 613.01715"
         y="-180.54202"
         sodipodi:role="line"
         id="tspan708">41</tspan><tspan
         x="608.5188 613.01715"
         y="-198.72214"
         sodipodi:role="line"
         id="tspan710">42</tspan><tspan
         x="608.5188 613.01715"
         y="-216.72214"
         sodipodi:role="line"
         id="tspan712">43</tspan><tspan
         x="608.5188 613.01715"
         y="-234.84167"
         sodipodi:role="line"
         id="tspan714">44</tspan><tspan
         x="608.5188 613.01715"
         y="-252.84169"
         sodipodi:role="line"
         id="tspan716">45</tspan><tspan
         x="608.5188 613.01715"
         y="-270.96204"
         sodipodi:role="line"
         id="tspan718">46</tspan><tspan
         x="608.5188 613.01715"
         y="-289.02182"
         sodipodi:role="line"
         id="tspan720">47</tspan><tspan
         x="608.5188 613.01715"
         y="-307.02182"
         sodipodi:role="line"
         id="tspan722">48</tspan><tspan
         x="608.5188 613.01715"
         y="-325.14218"
         sodipodi:role="line"
         id="tspan724">49</tspan><tspan
         x="608.5188 613.01715"
         y="-343.14218"
         sodipodi:role="line"
         id="tspan726">50</tspan><tspan
         x="608.5188 613.01715"
         y="-361.26254"
         sodipodi:role="line"
         id="tspan728">51</tspan></text>
    <path
       d="m 76.14,670.26 c 0.924,0.692 1.096,1.656 1.98,2.52 -2.157,-0.507 -4.133,-2.263 -4.5,-4.5 0.647,0.987 1.769,1.187 2.52,1.98 z m 5.7,-26.22 c -2.395,0.892 -2.799,4.044 -5.34,4.68 l 0.18,-0.12 0.12,-0.12 0.3,-0.48 0.66,-1.08 0.42,-0.66 c 0.808,-1.067 0.871,-0.985 1.92,-1.68 -1.027,0.52 -3.373,0.353 -4.62,1.26 0.934,-1.18 1.678,-1.559 3.12,-1.86 l 0.42,-0.06 h 0.9 l 0.78,0.06 0.66,0.06 0.3,0.06 z m 7.38,2.7 c 1.528,0.462 2.733,-0.651 4.56,0.78 -1.493,-1.585 -1.708,-4.089 -3.78,-5.22 4.565,1.528 3.802,3.351 5.16,6.72 -1.762,-1.276 -4.324,-0.604 -5.94,-2.28 z m 3.24,-0.36 c -2.463,-0.921 -4.161,0.672 -6.6,-0.54 2.295,-0.338 2.466,-0.965 5.1,-0.48 -1.796,-0.71 -3.157,-3.2 -4.92,-3.84 4.046,0.125 4.335,2.343 6.42,4.86 z m 4.8,5.82 c -2.64,-1.372 -2.861,-1.092 -5.04,-3.48 1.87,0.76 2.523,0.263 4.14,2.1 -1.142,-2.097 -0.674,-5 -2.22,-6.36 1.242,0.616 2.387,1.809 2.7,3.18 0.657,1.434 -0.089,3.767 0.42,4.56 z m -0.9,15.36 c -1.687,1.835 -2.336,1.276 -4.14,2.1 2.278,-2.595 2.352,-2.073 5.04,-3.54 -0.506,0.818 0.238,3.199 -0.42,4.56 -0.395,1.554 -1.379,2.463 -2.7,3.24 1.64,-1.696 0.999,-4.16 2.22,-6.36 z m -2.58,3.24 c -1.612,1.338 -2.814,0.497 -4.56,0.78 1.655,-1.579 4.18,-1.019 5.94,-2.28 -1.308,3.388 -0.669,5.275 -5.16,6.72 1.989,-1.033 2.34,-3.603 3.78,-5.22 z m 3.66,-4.98 c -0.341,-1.759 -0.569,-2.556 -0.48,-4.38 0.618,-3.746 0.618,-0.814 0,-4.56 -0.406,-3.139 1.772,-6.232 0.66,-9.3 2.691,3.231 0.61,7.127 0.18,10.68 0.197,-0.617 1.665,-2.662 2.22,-3 l 0.12,0.84 c -2.83,2.048 -2.874,4.077 0,6.12 l -0.12,0.84 c -0.767,-0.464 -1.789,-2.15 -2.22,-2.94 0.353,3.815 2.632,6.663 -0.18,10.68 0.676,-1.719 0.202,-3.248 -0.18,-4.98 z m -14.7,-19.8 c 2.213,-1.441 1.876,-1.866 4.68,-1.92 -1.942,-0.275 -3.679,-2.288 -5.22,-2.16 4.085,-0.937 4.036,0.907 6.66,2.58 -2.339,-0.181 -3.765,1.803 -6.12,1.5 z m -3.3,1.08 c 1.657,-1.676 1.746,-2.605 4.32,-3.36 -1.851,0.166 -3.72,-0.937 -5.52,-0.24 1.092,-0.833 2.525,-1.362 3.9,-1.02 0.913,0.124 2.517,1.363 3.12,1.26 -2.427,0.688 -2.95,2.549 -5.82,3.36 z m 4.32,27.48 c -2.309,-0.607 -2.823,-1.737 -4.32,-3.36 2.948,0.927 3.402,2.714 5.82,3.36 -2.807,0.952 -3.86,2.557 -7.02,0.24 1.803,0.75 3.663,-0.417 5.52,-0.24 z m 2.28,2.22 c 1.645,-0.467 3.051,-3.017 4.92,-3.84 -2.819,0.537 -2.6,-0.015 -5.1,-0.54 2.857,-1.002 3.65,0.387 6.6,-0.42 -1.958,2.236 -2.443,4.831 -6.42,4.8 z m -3.3,-4.5 c 2.731,-0.15 3.605,1.625 6.12,1.56 -2.606,1.502 -2.408,3.467 -6.66,2.58 2.025,-0.202 2.837,-1.686 5.22,-2.22 -2.721,0.036 -2.72,-0.588 -4.68,-1.92 z m -6.6,-24.18 c -0.968,0.754 -1.762,0.94 -2.52,1.98 0.333,-2.269 2.343,-4.03 4.5,-4.56 -0.78,0.769 -1.147,1.849 -1.98,2.58 z m 0.36,21.48 c 2.897,0.907 2.418,3.381 5.34,4.68 -2.453,0.18 -4.803,0.519 -6.36,-1.86 1.041,0.984 3.401,0.807 4.62,1.32 -2.115,-0.991 -2.436,-3.094 -3.6,-4.14 z m 1.62,-7.62 -0.12,-0.42 -0.12,-0.48 -0.12,-0.42 -0.06,-0.42 0.42,-0.06 v 0.42 l 0.12,0.48 0.3,0.78 -0.18,0.06 z m -3.54,-0.42 -0.12,0.12 -0.12,-0.24 v -0.6 l 0.12,-0.18 -0.06,-0.36 h 0.06 l 0.12,0.66 -0.06,0.3 z M 86.7,660.42 86.58,660.3 86.4,660.06 V 660 h 0.66 l -0.12,0.18 -0.06,0.12 -0.06,0.06 z m -7.14,-6.96 h -0.24 v -0.18 z m 16.56,5.7 c -0.436,15.089 -20.603,16.981 -22.98,1.26 h 0.12 l 0.24,-0.06 c 0.382,2.581 1.292,5.206 3.18,7.08 l 1.26,-1.32 h -0.18 l -0.12,-0.18 v -0.18 l -0.18,0.06 -0.54,-0.18 -0.3,-0.3 -0.54,-1.08 0.12,-0.12 0.06,-0.18 0.36,0.24 0.42,0.18 0.42,0.12 h 0.66 l 0.66,0.54 v -0.24 l 0.24,0.18 0.42,-0.48 -0.3,-0.18 0.3,-0.18 0.36,-0.18 0.06,0.06 1.32,-1.38 -0.18,-0.24 0.18,-0.48 0.06,0.18 0.06,-0.12 0.24,-0.24 -0.12,-0.06 0.12,-0.3 0.12,0.06 -0.06,0.24 0.06,0.12 h -0.12 v 0.12 h -0.12 v 0.36 l 0.06,0.12 0.54,-0.6 -0.06,-0.06 0.06,-0.6 0.12,-0.12 0.06,-0.12 -0.36,0.36 -0.06,-0.12 0.42,-0.36 v 0.12 h 0.12 l 0.06,0.12 0.24,0.06 -0.06,-0.24 0.06,-0.24 -0.3,-0.48 1.98,-0.06 c 0.385,1.333 1.049,2.667 2.64,2.52 1.036,-0.286 0.344,-0.009 1.14,-0.66 l 0.18,-0.18 v -0.12 l 0.24,-0.36 0.18,-0.48 0.24,-0.84 h 1.02 c 0.379,0.919 1.095,1.794 2.16,1.8 1.556,0.093 1.023,-0.221 1.38,-1.86 l 0.36,-0.06 c -0.2,2.225 -0.955,4.479 -2.52,6.12 l 1.32,1.44 c 4.121,-4.473 4.176,-11.884 0,-16.32 l -1.32,1.38 c 1.488,1.643 2.324,3.801 2.52,6 h -0.42 c -0.051,-1.986 -1.024,-4.276 -2.4,-5.7 l -0.3,0.36 0.06,0.54 -0.3,0.24 0.06,0.72 -0.3,0.12 h -0.06 c 0.76,1.183 1.241,2.242 1.38,3.66 H 91.2 c -0.283,-1.417 -0.71,-2.894 -1.74,-3.96 l -1.32,1.44 0.42,0.54 0.3,0.6 -0.18,0.06 -0.18,0.06 -0.3,-0.54 -0.3,-0.48 -1.38,1.44 0.24,0.36 0.18,0.42 h -0.42 l -0.12,-0.3 -0.12,-0.18 -0.36,0.36 -0.12,-0.36 0.24,-0.3 -0.24,-0.18 -0.3,-0.12 -0.12,-0.36 -0.18,-0.36 -0.48,-0.6 -0.24,-0.24 -0.3,-0.18 c -0.738,-0.507 -2.378,-0.345 -3,0.24 l -1.32,-1.44 c -0.963,1.128 -1.625,2.334 -1.74,3.84 H 77.7 c 0.219,-1.578 0.838,-2.869 1.86,-4.08 l -0.24,-0.24 0.36,-0.18 0.18,0.18 c 1.026,-1.154 3.045,-2.105 4.62,-2.04 v -2.04 c -2.058,-0.036 -4.562,1.132 -5.94,2.64 l 0.54,0.6 v 0.3 l -0.06,0.18 -0.78,-0.78 -0.54,0.66 -0.48,0.72 -0.3,0.06 -0.36,0.36 0.24,-0.6 0.42,-0.54 0.36,-0.48 0.42,-0.48 -1.32,-1.44 c -1.889,1.878 -2.819,4.487 -3.18,7.08 l -0.06,-0.06 -0.3,-0.06 c 2.47,-15.665 22.456,-13.782 22.98,1.26 z m -7.98,2.64 z m -11.22,5.94 c 2.225,2.11 4.511,3.227 7.56,3.24 V 669 h -0.54 l -0.54,-0.12 -0.48,-0.06 -0.54,-0.12 -0.48,-0.12 -0.48,-0.18 -0.54,-0.18 -0.42,-0.3 -0.06,0.06 0.12,0.12 -0.12,0.06 -0.6,-0.42 -0.54,-0.36 -0.42,-0.54 -0.6,-0.54 z m 2.46,-2.58 v 0.48 l 0.12,0.18 0.18,-0.12 0.42,0.72 v 0.12 l 0.9,0.84 -0.12,0.36 c 1.088,0.528 2.379,0.922 3.6,0.84 v -1.98 c -1.942,-0.511 -2.585,0.709 -4.26,-0.9 l 0.06,0.18 -0.06,0.06 -0.3,-0.48 h 0.12 l 0.6,0.42 0.48,0.24 0.48,0.18 0.36,0.12 0.54,0.06 v -0.18 l -0.48,-0.24 -0.12,0.06 -0.24,-0.18 h -0.24 l -0.12,-0.06 v -0.18 l -0.3,-0.18 0.06,0.12 h -0.12 l -0.06,0.12 -0.12,-0.06 0.12,-0.24 -0.3,0.12 -0.06,-0.12 0.24,-0.12 -0.48,-0.36 -0.42,-0.36 z m 4.44,-0.36 -0.18,0.36 -0.12,0.3 -0.12,0.12 -0.12,0.24 -0.18,0.06 -0.24,0.06 0.3,0.06 0.48,-0.18 h 0.24 l -0.36,0.3 H 84 l 0.48,0.06 v -1.74 l -0.12,-0.06 -0.18,0.24 -0.12,0.12 v 0.24 h -0.12 z m -1.32,-2.4 v 0.18 h -0.06 l -0.12,-0.18 h -0.36 l -0.24,0.24 0.48,0.36 0.24,-0.06 -0.18,-0.24 0.06,-0.12 0.18,0.06 v 0.06 l 0.12,-0.06 -0.06,-0.06 z m 6.3,0.72 -0.12,-0.42 v -0.12 l -0.24,-0.48 -0.24,0.3 0.24,0.36 0.12,0.3 0.12,0.18 z m -7.32,-0.24 -1.38,1.44 0.54,0.48 0.6,0.42 0.06,-0.18 h 0.3 l 0.3,0.54 0.84,0.36 0.12,-0.12 0.12,-0.18 0.3,-0.06 0.06,-0.12 0.12,-0.12 -0.06,-0.12 v -0.18 l -0.12,0.12 -0.42,0.06 v 0.12 l -0.36,-0.36 0.06,-0.3 0.3,-0.06 0.12,-0.18 -0.12,-0.18 -0.12,-0.06 -0.12,0.12 h 0.12 v 0.12 l -0.18,-0.06 v -0.12 h 0.06 v -0.06 l -0.6,-0.6 -0.06,0.06 v 0.12 l -0.06,-0.12 0.06,-0.18 0.06,0.06 v -0.18 l -0.3,-0.18 z m 7.14,0.78 -0.24,-0.24 -0.12,0.18 -0.36,0.18 -0.12,-0.06 -0.3,0.12 H 87.3 l -0.24,-0.12 -0.12,-0.18 h 0.18 l -0.06,-0.18 -0.3,0.24 -0.36,0.24 -0.12,0.18 -0.12,0.06 0.12,0.06 -0.18,0.12 -0.12,-0.06 v 0.06 l 0.06,0.18 v 0.3 l -0.12,0.18 -0.12,0.48 -0.12,-0.06 H 85.5 l 0.12,0.24 -0.12,0.06 h -0.12 l 0.12,-0.36 -0.12,-0.36 -0.54,-0.24 v 1.5 c 1.72,-0.08 3.131,-0.757 4.38,-1.92 l -0.24,-0.24 -0.3,0.12 -0.54,-0.18 z m 3.66,0.24 -0.36,0.18 -0.18,-0.06 -0.24,0.3 h -0.12 l -0.18,-0.24 -0.36,0.18 -0.3,0.3 -0.36,-0.3 v -0.24 L 90,663.9 l -0.3,0.36 1.32,1.38 0.36,-0.36 0.3,-0.42 z m -1.74,1.74 -0.18,0.18 -0.78,-0.12 v -0.12 l -0.12,0.06 -0.12,-0.3 0.24,-0.06 0.36,-0.06 0.06,-0.06 -0.54,-0.66 c -0.987,1.095 -3.112,2.133 -4.62,2.1 v 1.98 c 2.197,0.062 4.455,-1.096 5.94,-2.64 z m 0.48,0.6 c -1.736,1.807 -3.701,2.597 -6.18,2.76 v 1.98 c 2.786,-0.028 5.65,-1.275 7.5,-3.36 z m -1.8,-12.12 -0.42,-0.36 -0.54,0.06 -0.42,-0.24 -0.78,-0.06 -0.36,-0.24 -0.3,0.06 -0.48,-0.3 -0.12,-0.24 -0.3,0.12 -0.24,-0.12 -0.24,0.12 v 0.24 l -0.18,0.12 v 0.48 l 0.12,0.06 0.48,-0.06 0.06,-0.12 0.42,0.18 v -0.06 l -0.06,-0.12 h 0.06 l 0.18,0.06 0.24,0.12 v 0.06 l -0.18,0.06 -0.12,-0.06 h -0.12 l -0.36,-0.06 -0.54,0.12 -0.18,-0.12 v 0.36 c 1.152,0.054 2.232,0.587 3.06,1.38 z m -3.72,-1.26 0.3,-0.24 v -0.36 l -0.48,-0.06 h -0.48 v 0.6 l 0.48,-0.12 z m -1.32,0.6 -0.36,0.06 -0.12,0.24 0.12,0.42 v 0.06 l 0.66,-0.06 v -0.48 z m 1.44,2.04 -0.06,0.12 0.24,0.3 0.06,-0.18 0.18,0.36 -0.18,-0.06 -0.24,0.18 0.18,0.18 0.18,0.18 0.06,-0.36 0.24,0.18 -0.12,0.18 H 86.1 l -0.06,0.12 -0.42,0.12 0.36,0.18 0.3,0.24 1.32,-1.38 c -0.653,-0.696 -1.528,-1.114 -2.46,-1.26 l 0.24,0.3 v 0.24 z m -5.52,-1.44 1.32,1.44 0.54,-0.42 0.54,-0.36 v -0.36 l 0.18,-0.24 v 0.3 l -0.06,0.24 0.06,-0.06 0.12,-0.18 v -0.12 l 0.24,-0.3 -0.06,-0.3 0.84,-0.42 0.12,0.06 0.24,-0.24 0.3,-0.06 v -0.84 c -1.628,-0.025 -3.242,0.707 -4.38,1.86 z m 10.08,-1.86 0.24,0.48 0.12,0.12 0.24,-0.36 -0.42,-0.42 z m -5.34,-0.42 0.54,0.06 0.12,-0.3 h 0.18 l 0.6,-0.48 h 0.9 l 0.18,-0.54 v -0.3 l -0.66,-0.18 -0.54,-0.12 -0.66,-0.12 -0.66,-0.06 z m 2.52,-1.98 -0.06,-0.12 -0.12,-0.12 -0.06,-0.54 0.24,0.18 -0.12,-0.54 -0.12,0.12 -0.12,-0.12 0.18,-0.36 0.24,-0.18 0.54,0.06 0.96,0.42 0.3,0.24 0.06,0.12 -0.6,-0.36 h -0.54 v 0.18 l 0.48,0.36 h 0.06 -0.36 l 0.06,0.12 0.18,0.06 0.12,0.3 -0.12,0.12 v 0.06 h 0.24 l 0.18,0.12 0.06,0.18 0.54,0.36 0.06,0.3 H 89.4 l 0.48,0.3 0.36,0.36 0.42,0.36 0.42,0.42 1.32,-1.44 c -2.328,-2.282 -4.39,-3.199 -7.56,-3.42 v 2.04 l 1.32,0.12 0.54,0.12 z m -10.44,0.84 1.32,1.44 c 1.806,-1.809 3.705,-2.563 6.24,-2.7 v -2.04 c -2.825,0.115 -5.577,1.263 -7.56,3.3 z m -0.72,14.52 -0.18,-0.06 -0.12,-0.24 0.12,-0.24 0.18,0.24 0.18,0.3 z m 5.34,-1.14 h 0.12 l -0.06,0.3 -0.18,0.12 -0.3,-0.24 -0.24,0.12 0.3,0.36 h -0.12 l -0.18,-0.12 v 0.12 l -0.18,-0.12 0.12,-0.3 0.18,-0.06 0.18,-0.06 0.18,0.12 0.12,-0.06 z m 8.46,-14.58 -0.06,0.06 -0.36,-0.24 -0.12,-0.12 z m -7.08,8.28 h 0.24 l 0.18,0.12 0.18,0.18 0.12,0.24 h -0.12 l -0.24,-0.24 -0.18,0.12 -0.06,0.06 H 82.2 l 0.12,-0.24 0.18,-0.12 0.24,-0.12 h 0.18"
       style="fill:#272525;fill-opacity:1;fill-rule:nonzero;stroke:none"
       id="path732" />
    <path
       d="m 91.14,659.94 c 0.431,0.859 0.615,1.031 1.5,1.44 -1.006,0.096 -1.876,-0.559 -2.28,-1.44 h 0.78"
       style="fill:#272525;fill-opacity:1;fill-rule:nonzero;stroke:none"
       id="path734" />
    <path
       d="m 77.88,664.08 c -1.97,-0.041 -2.898,-2.082 -3,-3.78 h 0.6 l 0.66,-0.06 c 0.246,1.297 0.648,2.329 2.16,2.16 0.702,-0.27 0.882,-0.684 1.2,-1.32 0.38,-1.159 0.559,-2.302 0.9,-3.42 1.17,-3.141 4.478,-2.597 5.1,0.66 l -1.38,-0.06 c -0.533,-0.814 -0.353,-0.793 -1.2,-1.02 -0.766,0.048 -1.089,0.656 -1.26,1.38 -0.716,2.056 -0.709,5.505 -3.78,5.46"
       style="fill:#272525;fill-opacity:1;fill-rule:nonzero;stroke:none"
       id="path736" />
    <path
       d="m 89.22,657.36 c 0.6,-0.034 0.974,0.569 1.26,1.02 l -1.14,-0.06 -0.12,0.06 -0.12,0.12 -0.06,0.12 -0.12,0.12 -0.12,0.42 c -0.246,0.696 -0.551,2.054 -1.08,2.58 -1.361,1.18 -2.738,-0.209 -3,-1.68 l 1.26,-0.06 0.3,0.6 0.18,0.18 h 0.36 l 0.12,-0.06 0.12,-0.12 0.18,-0.06 0.12,-0.24 c 0.381,-0.87 0.625,-2.89 1.86,-2.94"
       style="fill:#272525;fill-opacity:1;fill-rule:nonzero;stroke:none"
       id="path738" />
    <path
       d="m 75.06,658.02 c 0.799,-1.676 0.415,-2.57 2.22,-3.54 l 0.24,-0.12 0.48,-0.12 0.18,-0.12 0.18,-0.06 h 0.12 l 0.18,-0.06 0.12,-0.06 0.12,-0.12 0.12,-0.18 0.12,-0.18 0.06,-0.24 v -0.24 0.12 l 0.06,0.12 -0.06,0.24 -0.06,0.24 0.54,-0.18 -0.42,0.3 -0.36,0.18 -0.12,0.12 -0.12,0.18 v 0.3 l -0.12,0.3 -0.12,0.36 c -0.534,1.176 -1.747,2.086 -1.98,2.82 z m 2.16,-2.52 0.06,-0.3 -0.6,0.36 0.06,0.42 0.48,-0.48"
       style="fill:#272525;fill-opacity:1;fill-rule:nonzero;stroke:none"
       id="path740" />
    <path
       d="m 89.1,659.34 0.12,-0.36 0.06,-0.12 0.06,-0.06 5.1,0.06 0.36,0.06 0.24,0.06 0.18,0.06 0.06,0.12 -0.06,0.12 -0.18,0.06 -0.24,0.06 -0.36,0.06 -5.4,0.06 0.06,-0.18"
       style="fill:#272525;fill-opacity:1;fill-rule:nonzero;stroke:none"
       id="path742" />
    <path
       d="m 87.48,658.74 -0.18,0.54 -0.06,0.3 -5.52,0.12 0.36,-1.08 5.4,0.12"
       style="fill:#272525;fill-opacity:1;fill-rule:nonzero;stroke:none"
       id="path744" />
    <path
       d="m 70.74,659.22 c 0.109,-0.615 0.132,-0.816 0.78,-0.96 l 0.18,-0.06 h 0.78 l 0.48,0.06 0.72,0.18 6.06,0.12 -0.3,1.2 -5.76,0.12 -0.78,0.18 -0.96,0.12 H 71.7 l -0.18,-0.06 c -0.475,0.058 -0.745,-0.487 -0.78,-0.9"
       style="fill:#272525;fill-opacity:1;fill-rule:nonzero;stroke:none"
       id="path746" />
    <path
       d="m 77.76,684.78 6.84,-1.32 v -1.8 l -8.34,-1.74 v 1.44 l 6.42,1.2 -6.42,1.26 v 1.92 l 6.42,1.26 -6.42,1.26 v 1.38 l 8.34,-1.74 v -1.86 l -6.84,-1.26"
       style="fill:#272525;fill-opacity:1;fill-rule:nonzero;stroke:none"
       id="path748" />
    <path
       d="m 78.36,692.22 c -0.071,1.893 1.428,2.741 3.12,2.7 1.806,0.071 3.174,-0.785 3.18,-2.7 -0.055,-1.996 -1.275,-2.77 -3.18,-2.76 -1.789,0.016 -3.148,0.796 -3.12,2.76 z m 5.28,0 c 0.002,0.995 -1.396,1.216 -2.16,1.14 -0.784,0.057 -2.105,-0.116 -2.1,-1.14 -0.106,-1.645 4.327,-1.616 4.26,0"
       style="fill:#272525;fill-opacity:1;fill-rule:nonzero;stroke:none"
       id="path750" />
    <path
       d="m 79.44,695.88 -0.54,-0.06 -0.48,-0.06 v 1.38 l 1.14,0.06 v 0.06 c -0.785,0.157 -1.337,1.033 -1.14,1.8 h 1.32 c -0.209,-0.834 0.048,-0.578 0.12,-1.08 l 0.18,-0.24 0.18,-0.18 0.3,-0.12 0.3,-0.06 h 3.78 v -1.5 h -5.16"
       style="fill:#272525;fill-opacity:1;fill-rule:nonzero;stroke:none"
       id="path752" />
    <path
       d="m 75.6,700.02 h 9 v 1.5 h -9 z"
       style="fill:#272525;fill-opacity:1;fill-rule:nonzero;stroke:none"
       id="path754" />
    <path
       d="m 75.6,707.76 h 9 v -1.38 l -0.42,-0.06 h -0.54 c 2.429,-1.576 0.325,-4.182 -2.1,-3.84 -1.179,-0.028 -2.863,0.31 -3.12,1.68 -0.232,0.752 0.109,1.779 0.9,2.04 v 0.06 H 75.6 Z m 7.98,-2.7 c -0.1,1.163 -1.153,1.109 -2.1,1.2 -0.848,-0.195 -2.067,0.025 -2.04,-1.2 -0.075,-0.972 1.285,-1.09 1.98,-1.08 h 0.54 l 0.42,0.06 0.36,0.06 0.3,0.12 0.24,0.12 0.18,0.18 0.06,0.24 0.06,0.3"
       style="fill:#272525;fill-opacity:1;fill-rule:nonzero;stroke:none"
       id="path756" />
    <path
       d="m 76.26,712.68 v 1.56 h 3.36 v 2.46 h -3.36 v 1.56 h 8.34 v -1.56 h -3.72 v -2.46 h 3.72 v -1.56 h -8.34"
       style="fill:#272525;fill-opacity:1;fill-rule:nonzero;stroke:none"
       id="path758" />
    <path
       d="m 84.3,723.96 c 1.564,-3.735 -1.786,-5.92 -5.04,-4.02 -1.004,0.763 -1.066,1.928 -0.66,3.06 0.501,1.064 2.275,1.382 3.3,1.32 v -3.6 c 2.005,-0.186 1.971,2.115 1.2,3.18 z M 81,722.88 c -2.349,0.076 -2.115,-2.357 0,-2.16 v 2.16"
       style="fill:#272525;fill-opacity:1;fill-rule:nonzero;stroke:none"
       id="path760" />
    <path
       d="m 78.78,725.64 c -0.448,0.903 -0.631,2.693 -0.06,3.54 0.865,1.46 4.529,0.413 5.88,0.9 v -1.38 l -0.42,-0.06 h -0.42 v -0.06 l 0.3,-0.3 0.36,-0.36 0.06,-0.18 0.12,-0.3 0.06,-0.24 c 0.137,-0.959 -0.401,-1.94 -1.38,-2.16 -2.295,-0.299 -2.516,1.709 -2.52,3.54 -1.894,0.135 -1.49,-1.903 -0.78,-2.88 z m 2.76,2.94 c -0.144,-1.264 0.465,-2.803 1.86,-1.92 l 0.12,0.12 0.06,0.18 0.06,0.18 v 0.54 l -0.12,0.24 c -0.268,0.702 -1.375,0.618 -1.98,0.66"
       style="fill:#272525;fill-opacity:1;fill-rule:nonzero;stroke:none"
       id="path762" />
    <path
       d="m 75.6,731.46 h 9 v 1.4401 h -9 z"
       style="fill:#272525;fill-opacity:1;fill-rule:nonzero;stroke:none"
       id="path764" />
    <path
       d="m 77.16,734.82 -0.48,1.5 h 1.74 v 1.26 h 1.08 v -1.26 h 3.6 l 0.18,0.12 h 0.12 l 0.06,0.12 0.06,0.12 v 0.6 l -0.12,0.3 h 1.08 c 1.074,-3.796 -2.445,-2.562 -4.98,-2.76 v -0.96 h -1.08 v 0.96 h -1.26"
       style="fill:#272525;fill-opacity:1;fill-rule:nonzero;stroke:none"
       id="path766" />
    <path
       d="m 75.6,738.3 v 1.5 h 3.6 v 0.06 c -0.653,0.312 -1.032,1.299 -0.78,1.98 v 0.24 l 0.18,0.36 0.12,0.18 0.3,0.18 0.3,0.24 0.42,0.06 0.42,0.12 h 4.44 v -1.5 h -4.02 l -0.3,-0.06 h -0.24 c -0.364,-0.247 -0.48,-0.215 -0.48,-0.78 v -0.3 l 0.12,-0.24 0.3,-0.3 0.24,-0.12 0.24,-0.06 H 80.7 L 81,739.8 h 3.6 v -1.5 h -9"
       style="fill:#272525;fill-opacity:1;fill-rule:nonzero;stroke:none"
       id="path768" />
    <path
       d="m 86.82,683.22 c -0.283,4.478 8.732,4.512 8.52,0 0.212,-4.512 -8.803,-4.478 -8.52,0 z m 7.38,0 c -0.041,1.564 -2.014,1.722 -3.18,1.74 -1.16,-0.021 -3.046,-0.198 -3.06,-1.74 0.014,-1.542 1.9,-1.719 3.06,-1.74 1.166,0.018 3.139,0.176 3.18,1.74"
       style="fill:#272525;fill-opacity:1;fill-rule:nonzero;stroke:none"
       id="path770" />
    <path
       d="m 90.12,687.6 -0.54,-0.06 h -0.54 v 1.32 l 1.2,0.06 v 0.06 c -0.803,0.212 -1.407,0.95 -1.2,1.8 h 1.38 l -0.06,-0.18 v -0.48 l 0.06,-0.18 0.24,-0.48 0.24,-0.18 0.24,-0.12 0.3,-0.06 h 3.78 v -1.5 h -5.1"
       style="fill:#272525;fill-opacity:1;fill-rule:nonzero;stroke:none"
       id="path772" />
    <path
       d="m 96.18,691.74 c 1.05,1.957 0.679,3.773 -1.98,3.42 0.826,-0.287 1.274,-1.577 0.9,-2.34 -0.424,-1.089 -1.411,-1.316 -2.46,-1.44 -1.242,-0.067 -2.947,0.1 -3.48,1.38 -0.383,0.99 -0.124,2.002 0.9,2.46 v 0.06 l -1.02,0.06 v 1.32 c 4.707,-0.418 10.372,1.691 8.46,-5.04 z m -2.04,2.28 -0.06,0.36 -0.06,0.3 -0.36,0.36 -0.3,0.12 -0.36,0.12 -0.42,0.06 h -0.96 l -0.42,-0.06 -0.3,-0.12 -0.3,-0.18 -0.24,-0.18 -0.12,-0.12 -0.12,-0.3 v -0.24 c -0.108,-0.913 1.332,-1.15 1.98,-1.08 h 0.54 l 0.36,0.12 0.36,0.06 0.3,0.12 0.24,0.18 0.12,0.12 0.06,0.18 0.06,0.18"
       style="fill:#272525;fill-opacity:1;fill-rule:nonzero;stroke:none"
       id="path774" />
    <path
       d="m 89.46,698.22 -0.18,0.36 -0.12,0.42 -0.12,0.54 -0.06,0.66 c 0.163,1.466 -0.126,0.447 0.36,1.62 0.877,1.369 4.533,0.549 5.88,0.84 v -1.32 l -0.36,-0.06 h -0.48 v -0.06 l 0.36,-0.3 0.18,-0.18 0.12,-0.18 0.12,-0.24 0.12,-0.24 v -0.24 c 0.268,-0.802 -0.443,-2.119 -1.32,-2.16 -1.098,-0.171 -1.07,-0.003 -1.86,0.48 -0.573,0.637 -0.71,2.221 -0.66,3 -1.958,0.312 -1.498,-2.027 -0.78,-2.82 z m 2.76,2.94 v -0.54 l 0.06,-0.42 0.06,-0.36 0.12,-0.3 0.18,-0.18 c 0.317,-0.43 1.104,-0.517 1.44,-0.06 l 0.12,0.12 0.12,0.36 v 0.54 l -0.12,0.24 c -0.522,0.753 -1.229,0.589 -1.98,0.6"
       style="fill:#272525;fill-opacity:1;fill-rule:nonzero;stroke:none"
       id="path776" />
    <path
       d="m 90.12,704.1 h -0.54 l -0.54,-0.06 v 1.44 l 0.96,0.06 -0.3,0.18 -0.18,0.12 -0.18,0.18 -0.24,0.48 -0.06,0.3 -0.06,0.36 v 0.3 l 0.06,0.18 0.06,0.24 0.12,0.18 0.06,0.18 0.36,0.36 0.36,0.18 0.36,0.12 0.42,0.06 0.48,0.06 h 3.96 v -1.5 H 91.2 l -0.3,-0.06 -0.18,-0.06 -0.18,-0.12 -0.18,-0.06 -0.12,-0.18 v -0.66 l 0.06,-0.24 0.18,-0.12 0.18,-0.18 0.18,-0.12 0.24,-0.06 0.3,-0.06 h 3.84 v -1.5 h -5.1"
       style="fill:#272525;fill-opacity:1;fill-rule:nonzero;stroke:none"
       id="path778" />
    <path
       d="m 87.9,710.4 h -1.44 v 1.5 h 1.44 z m -1.44,0 z m 8.76,0 h -6.18 v 1.4399 h 6.18 z"
       style="fill:#272525;fill-opacity:1;fill-rule:nonzero;stroke:none"
       id="path780" />
    <path
       d="m 93.96,713.28 -3.72,2.64 v -2.58 h -1.2 v 4.08 h 1.32 l 3.72,-2.64 v 2.7 h 1.14 v -4.2 h -1.26"
       style="fill:#272525;fill-opacity:1;fill-rule:nonzero;stroke:none"
       id="path782" />
    <path
       d="m 89.46,718.92 -0.18,0.36 -0.12,0.42 -0.12,0.54 -0.06,0.66 c 0.08,1.358 0.044,0.621 0.36,1.62 1.112,1.334 4.024,0.414 5.88,0.84 v -1.38 l -0.36,-0.06 -0.48,-0.06 c 3.465,-2.827 -3.326,-6.463 -2.94,0 -1.864,0.216 -1.578,-1.909 -0.78,-2.88 z m 2.76,2.94 v -0.6 l 0.06,-0.36 0.06,-0.36 0.12,-0.3 0.18,-0.24 0.18,-0.18 0.24,-0.06 0.36,-0.06 h 0.12 l 0.24,0.06 0.18,0.06 0.12,0.12 c 0.851,1.33 -0.495,2.107 -1.86,1.92"
       style="fill:#272525;fill-opacity:1;fill-rule:nonzero;stroke:none"
       id="path784" />
    <path
       d="m 87.84,724.98 -0.48,1.5 h 1.68 v 1.26 h 1.14 v -1.26 h 3.36 l 0.24,0.06 0.24,0.12 c 0.35,0.252 0.138,0.751 0.06,1.08 h 1.02 l 0.12,-0.18 0.06,-0.3 v -0.24 l 0.06,-0.3 -0.06,-0.42 -0.06,-0.36 -0.12,-0.24 -0.18,-0.24 -0.24,-0.24 -0.72,-0.24 h -3.78 v -1.02 h -1.14 v 1.02 h -1.2"
       style="fill:#272525;fill-opacity:1;fill-rule:nonzero;stroke:none"
       id="path786" />
    <path
       d="m 87.9,728.76 h -1.44 v 1.5599 h 1.44 z m -1.44,0 z m 8.76,0.18 h -6.18 v 1.5 h 6.18 z"
       style="fill:#272525;fill-opacity:1;fill-rule:nonzero;stroke:none"
       id="path788" />
    <path
       d="m 88.98,734.34 c -0.112,3.655 6.495,3.665 6.36,0 -0.174,-2.077 -1.139,-2.733 -3.18,-2.76 -1.913,-0.041 -3.082,0.79 -3.18,2.76 z m 5.28,0 c 0.187,1.557 -4.377,1.577 -4.2,0 -0.262,-1.67 4.466,-1.66 4.2,0"
       style="fill:#272525;fill-opacity:1;fill-rule:nonzero;stroke:none"
       id="path790" />
    <path
       d="m 90.12,738.36 -0.54,-0.06 h -0.54 v 1.38 l 0.96,0.06 c -0.799,0.457 -1.163,1.276 -0.96,2.16 l 0.06,0.24 0.12,0.18 0.06,0.12 0.12,0.18 0.24,0.24 0.36,0.18 0.36,0.12 0.42,0.06 0.48,0.06 h 3.96 v -1.5 h -3.66 l -0.36,-0.06 h -0.3 l -0.18,-0.06 -0.36,-0.24 -0.12,-0.12 v -0.66 l 0.06,-0.24 0.36,-0.36 0.18,-0.06 0.24,-0.12 h 4.14 v -1.5 h -5.1"
       style="fill:#272525;fill-opacity:1;fill-rule:nonzero;stroke:none"
       id="path792" />
    <path
       d="m 131.82,108.06 h 371.04 v 587.4 H 131.82 Z"
       style="fill:none;stroke:#000000;stroke-width:0.705;stroke-linecap:round;stroke-linejoin:miter;stroke-miterlimit:8;stroke-dasharray:none;stroke-opacity:1"
       id="path794" />
  </g>
</svg>
