<?xml version="1.0" encoding="UTF-8" standalone="no"?>
<!-- Created with Inkscape (http://www.inkscape.org/) -->

<svg
   width="143.34079mm"
   height="143.43947mm"
   viewBox="0 0 143.34078 143.43947"
   version="1.1"
   id="svg1"
   xml:space="preserve"
   inkscape:export-filename="bitmap.svg"
   inkscape:export-xdpi="96"
   inkscape:export-ydpi="96"
   xmlns:inkscape="http://www.inkscape.org/namespaces/inkscape"
   xmlns:sodipodi="http://sodipodi.sourceforge.net/DTD/sodipodi-0.dtd"
   xmlns="http://www.w3.org/2000/svg"
   xmlns:svg="http://www.w3.org/2000/svg"><sodipodi:namedview
     id="namedview1"
     pagecolor="#ffffff"
     bordercolor="#000000"
     borderopacity="0.25"
     inkscape:showpageshadow="2"
     inkscape:pageopacity="0.0"
     inkscape:pagecheckerboard="0"
     inkscape:deskcolor="#d1d1d1"
     inkscape:document-units="mm"><inkscape:page
       x="0"
       y="0"
       width="143.34079"
       height="143.43947"
       id="page1"
       margin="78.969955 30.600855 74.383316 35.947121"
       bleed="0" /></sodipodi:namedview><defs
     id="defs1" /><g
     inkscape:label="Layer 1"
     inkscape:groupmode="layer"
     id="layer1"
     transform="translate(-56.189192,-51.303169)"><rect
       style="fill:#00d9c5;fill-opacity:1;stroke-width:0.505875"
       id="rect1"
       width="142.79784"
       height="142.79784"
       x="56.111935"
       y="51.930645"
       ry="18.261801" /><path
       style="fill:#000000;stroke-width:1.91197"
       d="m 112.16953,174.69903 c -0.31268,-0.58426 -0.53839,-5.52683 -0.56019,-12.26748 -0.0317,-9.81349 -0.18106,-11.88081 -1.14301,-15.817 l -1.10652,-4.52802 -3.15452,-0.57049 c -1.73498,-0.31378 -3.28175,-0.69772 -3.43726,-0.85324 -0.23974,-0.23972 2.25428,-20.57375 3.13547,-25.56383 0.27443,-1.55409 0.20723,-1.64411 -1.22756,-1.64411 -1.98184,0 -3.32771,-1.19159 -4.864868,-4.30724 -1.614595,-3.27259 -2.083836,-6.92695 -1.3459,-10.481573 0.71757,-3.45652 0.882945,-3.51665 9.557948,-3.47566 l 6.24298,0.0294 -2.96055,-2.89706 c -2.0721,-2.02766 -3.22506,-3.6561 -3.842,-5.42642 -1.09177,-3.13287 -1.13122,-7.61363 -0.089,-10.10802 0.94034,-2.25055 4.90924,-6.619507 6.99157,-7.696327 3.73046,-1.9291 10.62812,-1.62764 15.20922,0.66471 3.16591,1.58422 4.65425,2.936747 5.89588,5.357877 1.03403,2.01632 1.30878,6.27034 0.42402,6.56526 -0.99814,0.3327 -1.18519,4.32077 -0.26829,5.72014 0.77586,1.1841 0.77865,1.46975 0.0359,3.67826 -1.72268,5.12305 -3.82449,6.91533 -8.58791,7.32327 l -1.51763,0.13001 1.83876,1.672343 c 2.32503,2.1146 4.52869,7.28528 5.97077,14.00979 0.96672,4.50789 1.61168,7.76753 4.22444,21.3502 0.38559,2.0045 0.54071,3.90405 0.34471,4.22117 -0.19597,0.31711 -1.90981,0.90224 -3.80849,1.30023 -1.8987,0.398 -3.48921,0.7749 -3.53448,0.83758 -0.20522,0.28402 -4.78274,23.97504 -4.7626,24.6489 0.0134,0.41734 0.83419,1.27673 1.82608,1.90977 1.37927,0.88027 2.21257,1.0742 3.54318,0.82457 1.68426,-0.31597 1.71148,-0.35763 0.85316,-1.30606 -1.38543,-1.53088 -1.51739,-6.80208 -0.22192,-8.86538 1.41371,-2.25164 3.31543,-3.08661 8.32697,-3.65605 2.37681,-0.27009 4.98824,-0.83584 5.80316,-1.25724 1.37621,-0.71167 1.46349,-0.92721 1.22658,-3.02911 -0.36406,-3.22989 0.19452,-5.52655 1.77924,-7.31552 2.6698,-3.01392 6.77461,-3.84807 10.53413,-2.1407 2.9365,1.3336 4.40348,3.61389 4.66679,7.25411 0.37171,5.13876 -2.18616,8.7725 -6.59105,9.36331 l -2.01812,0.2707 0.35193,2.81689 c 0.45413,3.63467 2.00757,7.54849 3.57129,8.9977 1.33448,1.23674 1.65477,3.6037 0.62675,4.63171 -0.33387,0.33387 -1.42589,0.60705 -2.42671,0.60705 -2.25248,0 -4.97866,-2.57603 -6.58978,-6.22684 -0.59047,-1.33802 -1.22773,-2.35838 -1.41612,-2.26748 -0.18833,0.091 -1.53766,0.61305 -2.99837,1.16035 -2.53345,0.94922 -2.65586,1.07971 -2.65586,2.83161 0,1.09198 -0.42505,2.37692 -1.04846,3.16945 l -1.04847,1.33296 h -14.61586 c -13.93254,0 -14.64035,-0.0457 -15.13955,-0.97849 z m 14.87975,-2.01506 c 0.34809,-0.56323 -0.37515,-1.36836 -2.25067,-2.50552 -1.42452,-0.86371 -2.58623,-1.0739 -5.94403,-1.07543 l -4.17347,-0.002 v 1.68624 c 0,0.92744 0.13824,1.82444 0.3071,1.99335 0.42148,0.42149 11.79716,0.33023 12.06107,-0.0968 z m -4.10922,-7.75631 c 0.15104,-0.62601 1.08802,-5.34963 2.08219,-10.4969 0.99415,-5.14729 1.92072,-9.85796 2.05907,-10.46817 0.24049,-1.06087 0.19044,-1.07762 -1.14207,-0.38252 -1.88184,0.98166 -3.09009,0.91979 -5.44059,-0.27856 -2.03475,-1.0374 -7.84106,-1.45942 -7.84106,-0.56994 0,0.24299 0.4518,2.23488 1.00399,4.4264 0.77324,3.06881 1.00578,5.69953 1.01174,11.44626 l 0.008,7.46167 h 3.99217 c 3.7214,0 4.01078,-0.0772 4.26679,-1.13824 z m 2.51437,-24.70958 c 0.64303,-1.02774 0.053,-3.44681 -0.93293,-3.82517 -1.11951,-0.4296 -3.76988,0.83492 -3.76988,1.79865 0,0.46081 0.36346,1.35675 0.80771,1.99101 0.92784,1.32465 3.07622,1.34425 3.8951,0.0356 z m -7.73807,-1.49931 c 0,-0.29466 -0.23297,-0.39174 -0.51772,-0.21577 -0.59562,0.36811 -3.22415,-5.1644 -5.29107,-11.13657 -1.30629,-3.7744 -1.38226,-4.43885 -1.12791,-9.86456 0.31655,-6.75175 0.57879,-7.70101 2.06879,-7.4884 1.03812,0.14818 1.07384,0.39721 1.07384,7.4884 0,7.32915 0.002,7.33891 1.8918,11.85752 1.04047,2.4873 2.10884,4.73941 2.37415,5.00472 0.48675,0.48674 6.60859,-1.48262 6.61211,-2.12707 9.3e-4,-0.17476 -0.72594,-2.42055 -1.61529,-4.99068 l -1.61701,-4.67295 0.62764,-4.68574 c 0.90642,-6.76702 1.05651,-7.34877 1.98814,-7.70627 1.71314,-0.65739 1.99529,0.8888 1.18588,6.49855 l -0.76519,5.3032 1.92639,5.80657 c 1.0595,3.19362 1.77557,6.05058 1.59123,6.34883 -0.18431,0.29825 -0.0616,1.45535 0.2728,2.57135 l 0.60793,2.02908 2.83016,-0.31838 c 1.55657,-0.17514 2.90835,-0.38393 3.00393,-0.46406 0.18737,-0.15716 -2.75597,-15.72369 -4.44768,-23.52258 -1.95615,-9.01784 -4.794,-12.89604 -10.87865,-14.866783 -3.38191,-1.09535 -11.5028,-1.91264 -15.05959,-1.5156 -2.81608,0.31435 -2.9038,0.37069 -3.22254,2.069713 -0.59051,3.14769 0.36828,6.70422 2.56234,9.50468 0.7511,0.9587 0.78869,0.95505 2.01448,-0.19653 0.687,-0.6454 1.97511,-2.3714 2.86248,-3.83552 2.42279,-3.99761 7.02505,-6.176163 7.02505,-3.32544 0,0.58207 -0.72756,1.43603 -1.77503,2.0834 -3.75846,2.32285 -4.40973,4.4621 -6.55824,21.54176 -1.68502,13.39514 -1.71583,12.74815 0.61868,12.99235 4.28295,0.44801 9.7381,0.35434 9.7381,-0.1673 z m 5.56462,-42.210723 c 0.43346,-1.14009 0.75846,-1.2647 3.29866,-1.2647 2.29498,0 3.04172,-0.22387 4.02437,-1.20653 1.54054,-1.54055 2.58724,-5.15927 1.77527,-6.13763 -0.3879,-0.4674 -0.46593,-2.04894 -0.24148,-4.89366 l 0.33165,-4.20311 -1.28923,1.57575 c -0.70907,0.86666 -2.03663,1.8632 -2.95013,2.21452 -0.9135,0.35133 -2.40583,1.46339 -3.31625,2.47124 -1.48059,1.63904 -1.70986,1.73968 -2.17163,0.95341 -0.28397,-0.48348 -0.9566,-1.11472 -1.49474,-1.40272 -2.42998,-1.30048 -4.18792,2.56085 -2.01348,4.42267 1.34884,1.15493 1.28568,1.59621 -0.5465,3.81897 -0.85704,1.03973 -1.47522,2.13953 -1.37373,2.44399 0.10153,0.30447 1.3149,0.9549 2.69647,1.44541 1.38157,0.4905 2.57449,0.92226 2.65093,0.95945 0.0765,0.0373 0.35538,-0.50149 0.61982,-1.19706 z"
       id="path1"
       sodipodi:nodetypes="csscssssssscsssssssscscsssssscssssssssssscssssscssscsccssscsssscssssssccsccsssssscssssssssscssscssscsssssssssssssccssssscsssssssssss" /></g></svg>
